<?xml version="1.0" encoding="utf-8"?>
<!-- Generator: Adobe Illustrator 21.0.0, SVG Export Plug-In . SVG Version: 6.00 Build 0)  -->
<svg version="1.1"
	 id="Calque_1" xmlns:cc="http://web.resource.org/cc/" xmlns:dc="http://purl.org/dc/elements/1.1/" xmlns:rdf="http://www.w3.org/1999/02/22-rdf-syntax-ns#" xmlns:svg="http://www.w3.org/2000/svg"
	 xmlns="http://www.w3.org/2000/svg" xmlns:xlink="http://www.w3.org/1999/xlink" x="0px" y="0px" viewBox="0 0 170.1 170.1"
	 style="enable-background:new 0 0 170.1 170.1;" xml:space="preserve">
<style type="text/css">
	.st0{fill:#EF84EC;}
	.st1{fill:#948547;}
	.st2{stroke:#000000;stroke-width:3.600000e-02;stroke-miterlimit:10;}
	.st3{fill:#CD3204;}
	.st4{fill:#45A040;}
	.st5{fill:#FCFCFC;}
	.st6{fill:#513A02;}
</style>
<path class="st0" d="M14.2,51.9c-1.1-0.3-2.3-0.4-3.6-0.1c-1.4,0.2-3,0.5-4.4,1.6c-1.4,1.1-3.2,3.1-3.7,4.8
	c-0.5,1.7-0.1,3.3,0.6,5.1c0.6,1.8,2.1,3.6,3.3,5.8c1.2,2.1,2.8,5.3,3.7,7c0.9,1.7,1.5,2.7,1.9,3.1C10.6,81,9.7,83,9,85.3
	c-0.7,2.3-0.9,4.4-1.3,7.4c-0.5,2.9-1.2,7.1-1.4,10c-0.2,2.8-0.4,4.5,0.1,6.8c0.4,2.2,1.5,5.3,2.6,6.6c1,1.3,1.8,1.4,3.5,1.3
	c1.7-0.1,4.8-1.3,6.6-1.9c1.7-0.6,3.1-1.2,3.7-1.5c0.6-0.3,0.7-0.4,0.1-0.3c-0.7,1.3-1.1,2.8-1,4.7c0,1.9,0.6,4.4,1.4,6.5
	c0.8,2.1,1.7,4.3,3.4,5.8c1.7,1.4,4,2.3,6.5,2.7c2.4,0.4,5.7,0.2,7.9-0.3c2.2-0.5,3.9-1.6,5.4-2.8c1.5-1.2,2.7-2.7,3.4-4.3
	c0.6-1.5,0.6-3.3,0.5-4.9c-0.1-1.6-0.6-3.2-1.1-4.5c-0.5-1.3-1.2-2.5-2-3.5l4.5-1.2c0.1,1.2,0.4,2.7,1.1,4.6
	c0.6,1.9,1.4,4.9,2.7,6.6c1.3,1.7,2.7,3.1,4.8,3.7c2.1,0.5,5.3,0.4,7.7-0.4c2.3-0.8,4.6-2.8,6.1-4.3c1.4-1.5,2.1-2.5,2.6-4.3
	c0.5-1.8,0.5-4.3,0.2-6.5c-0.3-2.2-1.4-4.8-2.2-6.6c-0.8-1.8-1.4-3-2.6-4.1c-1.3-1.1-2.9-1.9-4.9-2.4l2.6-3.1
	c1.7,0.1,3.4-0.1,5.1-0.7c1.7-0.6,4.1-1.6,5.1-2.7c1-1,1.1-2,0.8-3.6c-0.4-1.6-1.3-3.5-2.8-5.7c-1.5-2.2-4-5.6-6-7.4
	c-2.1-1.9-3.8-2.6-6.3-3.7c-2.5-1-5.4-1.8-8.8-2.4c0.1-1.9,0-4.1-0.4-6.6c-0.4-2.5-1.1-5.2-2-8.2c0.8-0.8,1.2-1.8,1.5-3.1
	c0.3-1.3,0.5-3.2,0.1-4.7c-0.4-1.5-1.3-3.2-2.5-4.1c-1.2-1-3.1-1.6-4.6-1.7c-1.5-0.1-3,0.4-4.5,1.2c-1.6,0.8-3.3,1.9-5,3.5
	c-1.6-0.6-3.5-0.8-5.7-0.7c-2.3,0.1-5.6,0.7-7.7,1.2c-2.1,0.5-3.2,0.8-4.7,1.9c-1.5,1.1-2.9,2.6-4.3,4.6L14.2,51.9L14.2,51.9z"/>
<path class="st1" d="M28.1,119c-0.2,1.5-0.1,3.2,0.8,4.6c0.9,1.4,2.5,3.3,4.7,3.8c2.2,0.5,6.1,0.3,8.2-0.8c2-1.2,4.4-3.5,4.1-6
	c-0.2-2.5-2.8-7.7-5.4-8.8c-2.7-1-8.2,1.2-10.3,2.4C28.1,115.4,28.3,117.4,28.1,119L28.1,119z"/>
<path class="st1" d="M58.3,109.9c-0.3,1.8,1,4.7,2,6.3c0.9,1.6,1.7,3.3,3.4,3.4c1.6-0.1,5-1.8,6.2-3.5c1.2-1.7,1.2-4.8,0.9-6.6
	c-0.4-1.7-1.5-3.2-3-3.8c-1.5-0.6-4.2-0.6-5.8,0.1C60.4,106.5,58.6,108.1,58.3,109.9L58.3,109.9z"/>
<path class="st1" d="M45,47.9c2.2-0.7,3.9-0.7,5.1-0.2c1.2,0.5,1.7,2,1.8,3.3c0.1,1.2-0.3,2.5-1.1,3.9c-3.4-0.8-5.6-1.8-6.5-3
	C43.3,50.7,43.6,49.4,45,47.9L45,47.9z"/>
<path class="st1" d="M16.1,57.3c-3,0.3-5,0.7-6.2,1.2c-1.2,0.5-1,1.1-0.9,2.2c0,1.1,0.4,2.5,1.2,4.3c2.1,0,3.6-0.7,4.6-2
	C15.8,61.7,16.2,59.9,16.1,57.3L16.1,57.3z"/>
<path class="st2" d="M20.9,54.2c-1.5-0.8-3-1.3-4.9-1.6c-1.9-0.3-4.1-0.8-6-0.2c-1.9,0.6-4.3,2-5.4,3.5c-1.2,1.5-2.2,3.4-1.6,5.7
	c0.6,2.3,2.3,4.8,5.2,7.7c-1.7-0.6-3-1.6-4.1-3c-1.2-1.5-2.4-3.8-2.6-5.6C1.3,58.8,2,57,2.9,55.5c0.9-1.5,2.6-2.9,4-3.6
	c1.4-0.8,2.2-1.3,4.5-0.9C13.8,51.4,16.9,52.4,20.9,54.2L20.9,54.2z"/>
<path class="st2" d="M16.8,52c1.9-1.9,3.6-3.3,5.2-4.3c1.6-1,2.7-1.3,4.6-1.8c1.9-0.5,4.8-0.8,6.7-1c1.8-0.2,3.2-0.4,4.3-0.3
	c-2-0.5-4.1-0.7-6.6-0.5c-2.5,0.2-5.7,1-7.9,1.8c-2.2,0.9-3.9,2.4-5,3.4C17.2,50.4,16.7,51.2,16.8,52L16.8,52z"/>
<path class="st2" d="M37.4,49.8c0.1-1.5,0.6-3,1.6-4.4c0.9-1.4,2.3-3.1,4.1-4.1c1.7-0.9,4.2-1.5,6.1-1.4c1.9,0.1,3.9,0.7,5.3,1.9
	c1.4,1.2,3,3.3,3,5.3c0,2-1,4.1-2.9,6.4c1.2-1.3,1.7-2.8,1.7-4.4c0-1.6-0.6-3.8-1.8-5.2c-1.2-1.4-3.4-3-5.4-3.1
	c-2-0.1-4.4,0.9-6.3,2.4C40.8,44.8,39,46.9,37.4,49.8L37.4,49.8z"/>
<path class="st2" d="M54,55.2c0.8,1.2,1.3,2.8,1.7,4.7c0.3,1.9,0.5,4.6,0.4,6.6c-0.1,2-0.4,3.5-0.9,5.4c-0.5,1.9-1.2,4.1-2,5.7
	c-0.9,1.6-1.9,2.9-3.1,3.9c1.5-0.7,2.7-1.7,3.8-3c1-1.3,1.9-2.8,2.5-4.9c0.6-2.2,1-5.3,0.9-7.9c-0.1-2.6-0.8-5.7-1.4-7.4
	C55.5,56.5,54.8,55.5,54,55.2L54,55.2z"/>
<path class="st2" d="M8.3,70.3c0.3,2.3,0.8,4.3,1.5,6.1c0.6,1.8,1.2,2.9,2.5,4.4c1.3,1.5,3.1,3.6,5.4,4.6s5,1.7,8.3,1.8
	c-2.9-0.6-5.5-1.8-7.8-3.4c-2.3-1.7-4.4-4.2-6.1-6.5C10.5,75.1,9.3,72.8,8.3,70.3L8.3,70.3z"/>
<path class="st2" d="M23.3,77.7c-2.3-0.9-3.5-2.2-3.7-3.9c-0.2-1.8,1-5.2,2.5-6.4c1.4-1.2,4.7-1.9,6.2-0.7c1.5,1.2,2.4,3.7,2.7,7.7
	c-1-3.8-2.2-5.9-3.8-6.5c-1.6-0.5-4.9,1.6-5.6,3.3C20.9,72.8,21.5,74.9,23.3,77.7L23.3,77.7z"/>
<path class="st2" d="M26.2,71.4c1.1-0.3,2.3,0.7,2.7,2.2c0.4,1.5-0.1,3-1.1,3.3c-1.1,0.3-2.3-0.7-2.7-2.2
	C24.6,73.2,25.1,71.7,26.2,71.4"/>
<path class="st2" d="M47.7,70.6c1.4-1.8,1.7-3.4,1-4.9c-0.7-1.5-3.4-3.7-5.2-3.9c-1.8-0.3-4.7,0.8-5.3,2.5c-0.6,1.7-0.1,4.1,1.6,7.5
	c-1.1-3.5-1.2-5.8-0.2-7s4.7-1.2,6.1-0.1C47.1,65.5,47.7,67.6,47.7,70.6L47.7,70.6z"/>
<path class="st2" d="M42.2,67c1-0.3,2.1,0.6,2.5,2.1c0.4,1.4-0.1,2.8-1.1,3.1c-1,0.3-2.1-0.6-2.5-2.1S41.2,67.3,42.2,67"/>
<path class="st2" d="M11.1,83.2c-2.3,4.4-3.9,8.4-5,12.3c-1,3.9-1.4,7.4-1.2,10.7s1.2,6.8,2.3,8.8c1,2,1.6,3.4,3.8,3.3
	c2.2-0.2,5.2-1.6,9.2-4.3c-3.6,2-6.3,2.8-8.4,2.5c-2.1-0.4-3.1-1.9-3.9-4.6c-0.8-2.8-1.3-7-0.8-11.8C7.7,95.2,9,89.7,11.1,83.2
	L11.1,83.2z"/>
<path class="st2" d="M22.1,91.1c-0.5,0.9-0.8,2.4-0.7,4.9c0.1,2.4,0.4,5.6,1.1,9.6c0.1-3.4,0.2-6.2,0.1-8.6
	C22.6,94.5,22.4,92.6,22.1,91.1L22.1,91.1z"/>
<path class="st2" d="M54.6,83.4c0.7,1.6,1.8,3.3,3.5,5c1.6,1.8,3.6,3.5,6,5.4c-1.7-2.5-3.4-4.6-4.9-6.3C57.5,85.7,56,84.4,54.6,83.4
	L54.6,83.4z"/>
<path class="st2" d="M60.1,70.4c3.8,0.5,7.1,1.9,10,4c2.8,2.2,5.4,6,7,8.9c1.6,2.8,4.1,6,2.5,8c-1.7,1.9-5.7,3.1-12.3,3.5
	c3.7,0.7,6.6,0.8,8.9,0.4c2.3-0.5,4.2-1.8,5-3.3c0.8-1.5,1.1-2.6-0.4-5.7c-1.6-3.1-5.5-9.8-9-12.5C68.3,71,64.5,70,60.1,70.4
	L60.1,70.4z"/>
<path class="st2" d="M46.2,130.1c-2.4,2.2-5,3.5-8.2,3.9c-3.1,0.4-7.7,0-10.4-1.5c-2.7-1.6-4.4-5.1-5.4-8c-1-2.9-1.3-6.2-0.7-8.9
	c0.6-2.7,2.1-5.4,4.4-7c2.3-1.6,5.3-2.4,9.3-2.6c-3.5,1-6.2,2.3-8.3,3.8c-2.1,1.5-3.4,3.1-4,5.3c-0.6,2.2-0.5,5.4,0.3,8
	c0.8,2.5,2.4,5.5,4.4,7.2c2.1,1.6,4.8,2.5,7.9,2.5C38.8,132.8,42.2,131.9,46.2,130.1L46.2,130.1z"/>
<path class="st2" d="M63,127.2c2.2-0.2,4.2-0.9,6.2-2.1c1.9-1.2,4.1-3.1,5.4-5c1.2-1.9,1.9-3.8,2-6.3c0-2.5-0.9-6.2-1.9-8.4
	c-1-2.2-2.3-3.5-3.8-4.6c-1.5-1.2-2.8-2.2-5.1-2.2c-2.4,0-5.3,0.9-9,2.5c2-1.6,4-2.6,6.2-3.2c2.2-0.6,4.9-1,6.9-0.3
	c1.9,0.7,3.6,2.5,4.8,4.5c1.2,2,2,5.2,2.6,7.4c0.5,2.2,0.9,3.8,0.7,5.8c-0.3,2-0.9,4.3-2,6c-1.2,1.7-2.7,3.2-4.8,4.3
	C69,126.6,66.3,127.1,63,127.2L63,127.2z"/>
<path class="st2" d="M57.6,123.8c-2.1-1.2-3.6-2.9-4.7-5.3c-1.1-2.4-1.9-6.4-1.9-8.9c0-2.5,0.6-4.4,1.9-5.9c-0.6,3-0.9,5.6-0.8,7.9
	c0.1,2.3,0.7,3.6,1.6,5.7C54.7,119.2,55.9,121.4,57.6,123.8L57.6,123.8z"/>
<path class="st2" d="M43.6,110.2c1.7,1.3,3.2,3.2,4.4,5.8c1.2,2.6,2,5.7,2.6,9.6c0.4-2.9,0.3-5.4-0.2-7.6c-0.6-2.3-1.9-4.5-3-5.8
	C46.2,110.8,45,110.2,43.6,110.2L43.6,110.2z"/>
<path class="st2" d="M32.2,112.9c-1.8,0.4-2.9,1.3-3.5,2.9c-0.6,1.6-0.6,4.5,0.1,6.6c0.8,2.1,2.6,4.6,4.4,5.7c1.8,1,4.3,1.1,6.1,0.4
	c1.8-0.8,3.2-2.5,4.3-5.1c-2,2.2-3.7,3.5-5.4,4c-1.7,0.5-3.2-0.5-4.4-1.2c-1.2-0.7-2-1.8-2.7-3.1c-0.8-1.3-1.8-3.1-1.6-4.8
	C29.8,116.6,30.6,114.8,32.2,112.9L32.2,112.9z"/>
<path class="st2" d="M62.7,105.2c1.9-0.8,3.7-0.8,5.3-0.1c1.6,0.8,3.8,2.6,4.3,4.6c0.4,2-0.6,5.4-1.7,7.2c-1.2,1.8-3.5,3.2-5.2,3.3
	c-1.8,0.1-3.6-0.9-5.4-2.9c1.7,1.1,3.3,1.7,4.8,1.5c1.5-0.1,3-0.9,4-2.2c1-1.4,2.3-4.1,2.4-5.7c0-1.7-0.9-3-2.3-4
	C67.4,106,65.4,105.4,62.7,105.2L62.7,105.2z"/>
<path class="st2" d="M10.5,65.6c-1.4-1.4-2.1-2.8-2.3-4.1c-0.2-1.3-0.8-2.7,1.2-3.5S14.9,57,20,57c-4.2,0.3-7.1,0.8-8.9,1.5
	c-1.8,0.7-1.6,1.3-1.7,2.5C9.3,62.2,9.6,63.7,10.5,65.6L10.5,65.6z"/>
<path class="st2" d="M11.8,64.6l4.4-2.1c-0.4,0.9-1,1.5-1.7,1.8C13.7,64.7,12.9,64.8,11.8,64.6L11.8,64.6z"/>
<path class="st2" d="M51.4,54.4c0.7-1.9,1-3.4,0.7-4.6c-0.3-1.3-0.3-2.8-2.4-2.8c-2.1,0-5.5,0.9-10.3,2.8c4-1.2,6.9-1.8,8.8-1.8
	c1.9,0,2,0.6,2.5,1.7C51.3,50.9,51.4,52.4,51.4,54.4L51.4,54.4z"/>
<path class="st2" d="M49.8,54.1l-4.9-0.4c0.7,0.6,1.5,1,2.3,1.1C48,54.8,48.9,54.6,49.8,54.1L49.8,54.1z"/>
<path class="st1" d="M29.2,80.9c-1.6,1.4-3.5,3.2-2.9,4.4c0.6,1.3,3.7,2.6,6.7,3.1c3,0.5,8.7,0.6,11.2-0.4c2.5-1.1,3.4-4,3.5-5.8
	c0-1.8-1-3.8-3-4.6c-2.1-0.8-6.4-0.9-9-0.4C33,77.7,30.8,79.5,29.2,80.9L29.2,80.9z"/>
<path class="st2" d="M39.8,87.8c0.1-0.9-0.2-1.9-0.9-2.8c-0.8-0.9-3.5-2-3.7-2.7c-0.1-0.7,1.7-1.1,3-1.7c1.3-0.6,2.8-1.1,4.7-1.7
	c-3.1,1.3-4.9,2.3-5.4,3.1c-0.5,0.8,1.9,0.8,2.3,1.7C40.2,84.8,40.2,86.1,39.8,87.8L39.8,87.8z"/>
<path class="st2" d="M47.8,79.8c0.2,1.6-0.1,3-0.9,4.4c-0.8,1.3-1.7,2.5-3.7,3.5c-2,1-4.5,1.7-7.9,2.2c2,0.2,3.9,0.1,5.8-0.4
	c1.9-0.5,4.2-1.4,5.4-2.4c1.2-1,1.4-2.3,1.7-3.5C48.4,82.4,48.3,81.1,47.8,79.8L47.8,79.8z"/>
<path class="st2" d="M26.8,82.6c0.4-0.5,1.2-1.3,2.6-2.3c1.3-1,3.6-3,5.5-3.7c1.9-0.7,3.5-0.5,5.7-0.4c2.2,0.1,4.6,0.5,7.5,1.1
	c-4.4-0.8-7.9-0.9-10.8-0.3c-2.8,0.5-4.4,2.7-6.1,3.7C29.4,81.6,27.9,82.2,26.8,82.6L26.8,82.6z"/>
<path d="M47,112.5l4.4-1l0,0.7l-3.6,1L47,112.5L47,112.5z"/>
<path class="st3" d="M47.5,105c-2.6-0.6-4.8-1.4-6.6-2.2c-1.9-0.9-3.5-1.8-4.5-2.9c-1-1.1-1.6-2.8-1.5-3.8c0.1-1,1.2-1.9,2-2.3
	c0.8-0.4,2.1-0.3,3-0.2c0.9,0.1,1.5,0.3,2.1,0.6c0.8-1.5,1.7-2.6,2.8-3.2c1.1-0.6,2.9-1,3.9-0.2c0.9,0.7,1.8,2.2,1.6,4.6
	C50,97.8,49.1,100.9,47.5,105L47.5,105z"/>
<path d="M41,93.8c-0.8-0.6-1.5-0.9-2.5-0.9c-0.9,0-2.2,0.2-3,0.9c-0.8,0.7-2,2-1.7,3.4c0.2,1.4,1,3.4,3.1,4.6
	c2.1,1.2,5.2,2.2,9.4,2.8c-1.9-0.8-3.7-1.6-5.4-2.6c-1.7-0.9-3.7-1.9-4.6-3c-0.9-1.1-1.1-2.5-0.8-3.3c0.4-0.9,2-1.5,2.9-1.9
	C39.4,93.6,40.2,93.6,41,93.8L41,93.8z"/>
<path d="M43,93c0-0.9,0.4-1.7,1.2-2.2c0.8-0.6,2.4-1.5,3.6-1.2c1.1,0.3,3.2,0.6,3.2,3c0,2.4-1,6-3.1,11.1c0.9-3.3,1.4-5.9,1.5-7.9
	c0.1-2-0.4-3-0.9-3.8c-0.5-0.7-1-0.8-1.9-0.6C45.8,91.5,44.6,92,43,93L43,93z"/>
<path class="st4" d="M130.8,41.9c-0.7-0.9-1.7-1.6-2.9-2.2c-1.3-0.6-2.8-1.3-4.5-1.2c-1.8,0.1-4.4,0.8-5.8,1.9
	c-1.4,1.1-1.9,2.7-2.4,4.6c-0.5,1.9-0.3,4.1-0.5,6.6c-0.2,2.4-0.7,5.9-0.9,7.9c-0.2,1.9-0.2,3.1-0.2,3.6c-2.1,0.9-4,2-5.9,3.5
	c-1.9,1.5-3.2,3.2-5.2,5.3c-2,2.1-5,5.2-6.8,7.5C94,81.6,92.9,82.9,92,85c-0.9,2.1-1.7,5.2-1.6,6.9c0.1,1.6,0.7,2.2,2.2,3
	c1.5,0.8,4.7,1.6,6.5,2.1c1.8,0.5,3.2,0.7,4,0.8c0.7,0.1,0.8,0,0.3-0.2c-1.3,0.6-2.5,1.7-3.5,3.3c-1,1.6-1.9,4-2.5,6.1
	c-0.5,2.2-1,4.5-0.4,6.7c0.6,2.1,2,4.1,3.8,5.9c1.8,1.7,4.6,3.4,6.7,4.2c2.1,0.8,4.1,0.9,6,0.7s3.8-0.7,5.3-1.6
	c1.4-0.9,2.3-2.4,3.1-3.8c0.8-1.4,1.3-3,1.6-4.4c0.3-1.4,0.4-2.7,0.3-4l4.4,1.6c-0.6,1.1-1.2,2.5-1.7,4.4c-0.5,1.9-1.5,4.8-1.4,7
	c0.1,2.1,0.5,4.1,1.9,5.8c1.4,1.6,4.2,3.3,6.6,4c2.4,0.6,5.4,0.2,7.5-0.1c2-0.4,3.2-0.9,4.6-2.1c1.4-1.2,2.8-3.3,3.8-5.3
	c1-2.1,1.6-4.8,1.9-6.7c0.4-1.9,0.6-3.3,0.1-4.9c-0.4-1.6-1.3-3.2-2.7-4.8l3.9-1.1c1.4,1,2.9,1.8,4.6,2.3c1.7,0.5,4.3,0.9,5.7,0.6
	c1.4-0.3,2.1-1,2.6-2.5c0.6-1.5,0.9-3.6,0.9-6.3c0-2.7-0.2-6.8-0.8-9.5c-0.7-2.7-1.6-4.3-3.1-6.6c-1.5-2.3-3.5-4.5-5.9-6.9
	c1.2-1.5,2.3-3.4,3.4-5.7c1-2.3,2-4.9,2.9-7.9c1.1-0.2,2-0.8,3-1.7c0.9-0.9,2.2-2.4,2.7-3.8c0.5-1.5,0.7-3.4,0.3-4.9
	c-0.5-1.5-1.7-3-2.9-4s-2.6-1.4-4.4-1.6c-1.8-0.3-3.8-0.2-6.2,0.1c-1-1.4-2.4-2.6-4.3-3.8c-1.9-1.2-5-2.6-7-3.3
	c-2-0.7-3.1-1.1-4.9-1c-1.9,0-3.9,0.5-6.2,1.4L130.8,41.9L130.8,41.9z"/>
<path class="st1" d="M104.7,105.2c-1.1,1.2-1.9,2.5-1.9,4.2c0,1.7,0.2,4.1,1.7,5.8c1.5,1.7,4.8,3.7,7.2,4c2.3,0.2,5.6-0.4,6.8-2.6
	c1.2-2.2,2-7.9,0.4-10.3c-1.6-2.4-7.5-3.6-9.9-3.8C106.7,102.3,105.7,104,104.7,105.2L104.7,105.2z"/>
<path class="st1" d="M134.8,114.7c-1.2,1.3-1.8,4.4-1.9,6.3c-0.2,1.8-0.4,3.7,0.9,4.6c1.4,0.9,5.1,1.3,7.1,0.6
	c1.9-0.8,3.7-3.3,4.4-5c0.7-1.7,0.6-3.5-0.3-4.8c-0.9-1.4-3.2-2.9-4.9-3.2C138.4,113,136,113.4,134.8,114.7L134.8,114.7z"/>
<path class="st1" d="M158.6,55.9c2.2,0.7,3.6,1.6,4.3,2.7c0.7,1.1,0.2,2.6-0.4,3.7c-0.6,1-1.6,1.9-3.1,2.6c-2.4-2.6-3.6-4.6-3.7-6.1
	C155.6,57.3,156.5,56.4,158.6,55.9L158.6,55.9z"/>
<path class="st1" d="M129.4,47.5c-2.6-1.4-4.5-2.3-5.8-2.5c-1.3-0.2-1.4,0.3-2,1.3c-0.6,0.9-1,2.3-1.4,4.2c1.8,1.1,3.4,1.4,4.9,0.9
	C126.6,50.9,128,49.7,129.4,47.5L129.4,47.5z"/>
<path class="st2" d="M135,47.6c-0.8-1.5-1.8-2.8-3.1-4.1c-1.4-1.3-2.9-3-4.9-3.6c-1.9-0.6-4.6-0.8-6.5-0.1c-1.9,0.6-3.7,1.6-4.5,3.8
	c-0.8,2.2-0.8,5.2,0,9.3c-1-1.4-1.6-3-1.7-4.8c-0.1-1.9,0.2-4.5,1-6.1c0.9-1.6,2.5-2.8,4.1-3.5c1.6-0.7,3.7-0.9,5.4-0.8
	c1.6,0.2,2.5,0.1,4.2,1.8C130.8,41.3,132.7,43.9,135,47.6L135,47.6z"/>
<path class="st2" d="M132.9,43.5c2.6-0.5,4.8-0.7,6.7-0.6c1.9,0.1,2.9,0.4,4.8,1.1c1.8,0.7,4.4,2.1,6.1,2.9c1.7,0.9,2.9,1.5,3.8,2.1
	c-1.4-1.6-3-2.9-5.2-4.1c-2.1-1.2-5.3-2.4-7.5-2.9c-2.3-0.5-4.6-0.2-6,0C134.1,42.3,133.2,42.8,132.9,43.5L132.9,43.5z"/>
<path class="st2" d="M151.2,53.2c0.9-1.2,2.2-2.1,3.8-2.7c1.6-0.6,3.7-1.3,5.6-1.1c1.9,0.2,4.3,1.1,5.8,2.3c1.5,1.1,2.8,2.8,3.3,4.6
	c0.5,1.8,0.6,4.4-0.5,6.1c-1.1,1.6-3.1,2.8-6,3.6c1.7-0.5,3-1.4,3.9-2.7c0.9-1.4,1.6-3.5,1.4-5.3c-0.3-1.8-1.2-4.4-2.7-5.6
	c-1.6-1.2-4.1-1.7-6.6-1.6C156.8,51,154.2,51.7,151.2,53.2L151.2,53.2z"/>
<path class="st2" d="M161.9,67c-0.1,1.4-0.5,3-1.3,4.8c-0.8,1.8-2.2,4.1-3.4,5.7c-1.2,1.6-2.3,2.7-3.7,4c-1.5,1.3-3.2,2.7-4.9,3.6
	c-1.6,0.8-3.2,1.3-4.7,1.5c1.6,0.3,3.2,0.1,4.8-0.4c1.6-0.5,3.2-1.2,4.9-2.6c1.7-1.5,3.8-3.9,5.2-6c1.4-2.2,2.5-5.2,3-6.9
	C162.4,68.9,162.4,67.7,161.9,67L161.9,67z"/>
<path class="st2" d="M115.6,53.9c-1,2.1-1.8,4-2.2,5.9c-0.4,1.8-0.6,3.1-0.4,5.1c0.3,2,0.6,4.7,1.9,6.9c1.3,2.2,3.2,4.2,5.9,6.1
	c-2.1-2.2-3.5-4.5-4.5-7.2c-1-2.7-1.3-6-1.4-8.8C114.7,59,115,56.4,115.6,53.9L115.6,53.9z"/>
<path class="st2" d="M123.8,68.4c-1.4-2-1.7-3.7-0.9-5.3c0.8-1.6,3.7-3.7,5.7-3.9c1.9-0.2,4.9,1.1,5.5,2.9c0.6,1.8-0.1,4.4-2.1,7.9
	c1.3-3.7,1.5-6.2,0.5-7.5c-1-1.3-5-1.4-6.5-0.4C124.6,63,123.9,65.1,123.8,68.4L123.8,68.4z"/>
<path class="st2" d="M129.8,64.8c1,0.4,1.5,1.8,1,3.4s-1.8,2.5-2.8,2.1c-1-0.4-1.5-1.8-1-3.4C127.5,65.4,128.7,64.4,129.8,64.8"/>
<path class="st2" d="M148,76.2c2.2-0.8,3.4-1.9,3.6-3.5c0.3-1.6-0.7-5-2.1-6.1c-1.3-1.2-4.3-1.9-5.8-0.9c-1.4,1-2.4,3.4-2.8,7.1
	c1-3.5,2.3-5.5,3.8-5.9c1.5-0.4,4.6,1.7,5.1,3.3C150.4,71.7,149.8,73.7,148,76.2L148,76.2z"/>
<path class="st2" d="M145.5,70.2c1,0.3,1.4,1.7,0.9,3.2c-0.5,1.4-1.7,2.3-2.6,2c-1-0.3-1.4-1.7-0.9-3.2
	C143.3,70.7,144.5,69.9,145.5,70.2"/>
<path class="st2" d="M110.6,66.1c-4.4,2.3-8,4.7-11,7.4c-3,2.6-5.3,5.4-7,8.2c-1.7,2.8-2.8,6.3-3.1,8.6c-0.3,2.2-0.6,3.7,1.3,4.8
	c1.9,1.1,5.2,1.6,10,1.6c-4.1-0.4-6.8-1.2-8.3-2.7c-1.5-1.5-1.5-3.3-0.6-6c0.9-2.8,2.8-6.6,6-10.2C101.1,74.1,105.3,70.3,110.6,66.1
	L110.6,66.1z"/>
<path class="st2" d="M115.3,78.8c-0.9,0.4-2,1.6-3.3,3.6s-2.8,4.8-4.5,8.5c2-2.7,3.6-5,5-7.1C113.8,81.9,114.7,80.2,115.3,78.8
	L115.3,78.8z"/>
<path class="st2" d="M146.5,90.6c-0.3,1.8-0.3,3.8,0,6.1c0.3,2.3,1,4.9,2,7.8c0-3-0.2-5.7-0.5-8C147.7,94.2,147.2,92.3,146.5,90.6
	L146.5,90.6z"/>
<path class="st2" d="M158.4,83c2.9,2.6,4.9,5.5,6,8.9c1.1,3.4,1.1,8,0.8,11.3c-0.3,3.2,0,7.3-2.4,8c-2.5,0.6-6.4-0.7-12.1-4
	c2.6,2.7,5,4.4,7.2,5.3c2.2,0.9,4.5,0.9,6,0.1c1.5-0.8,2.4-1.5,2.8-4.9c0.4-3.5,1-11.2-0.4-15.4C164.9,88.1,162.3,85.1,158.4,83
	L158.4,83z"/>
<path class="st2" d="M113.4,124.6c-3.2,0.5-6.2,0.1-9-1.3c-2.8-1.4-6.5-4.3-7.7-7.1c-1.3-2.8-0.7-6.7,0-9.6c0.8-2.9,2.4-5.9,4.4-7.7
	c2-1.9,4.7-3.3,7.5-3.3c2.8,0,5.8,1,9.2,3.1c-3.5-1.1-6.4-1.6-9-1.5c-2.6,0.1-4.5,0.7-6.3,2.2c-1.8,1.5-3.4,4.2-4.2,6.8
	c-0.8,2.5-1.1,5.9-0.4,8.4c0.8,2.5,2.5,4.8,5.1,6.5C105.7,122.7,109.1,123.9,113.4,124.6L113.4,124.6z"/>
<path class="st2" d="M128.9,131.6c1.9,1.1,4,1.6,6.3,1.8c2.3,0.1,5.2-0.2,7.3-1.1c2.1-0.9,3.8-2.1,5.2-4.1c1.4-2.1,2.7-5.6,3.1-8
	c0.4-2.3,0-4.2-0.5-6c-0.6-1.8-1-3.4-3-4.7c-2-1.3-4.9-2.3-8.9-3c2.5-0.2,4.8,0.1,7,0.8c2.2,0.7,4.6,2,5.9,3.6
	c1.2,1.7,1.5,4.1,1.5,6.4c-0.1,2.4-1.2,5.4-2,7.6c-0.8,2.1-1.4,3.6-2.7,5.1c-1.3,1.5-3.1,3.1-5,3.9c-1.9,0.8-4,1.2-6.4,0.8
	C134.2,134.5,131.7,133.4,128.9,131.6L128.9,131.6z"/>
<path class="st2" d="M126.4,125.7c-1-2.1-1.4-4.4-0.9-7c0.4-2.6,2-6.3,3.4-8.4c1.4-2.1,3-3.3,4.9-3.8c-2.2,2.1-3.9,4.1-5,6.1
	c-1.1,1.9-1.5,3.4-1.8,5.6C126.5,120.4,126.3,122.9,126.4,125.7L126.4,125.7z"/>
<path class="st2" d="M122.4,106.7c0.7,2,0.9,4.4,0.4,7.2c-0.5,2.8-1.5,5.9-3.2,9.4c1.9-2.2,3.3-4.3,4.1-6.5c0.8-2.2,1-4.8,0.8-6.5
	C124.2,108.7,123.6,107.4,122.4,106.7L122.4,106.7z"/>
<path class="st2" d="M111.5,102.5c-1.7-0.7-3.2-0.5-4.5,0.4c-1.4,1-3.1,3.4-3.6,5.6c-0.5,2.1-0.5,5.3,0.4,7.1c0.9,1.8,3,3.4,4.9,3.7
	c1.9,0.3,4-0.3,6.5-1.8c-2.9,0.7-5.1,0.8-6.7,0.3c-1.6-0.5-2.3-2.2-2.9-3.4c-0.6-1.3-0.7-2.6-0.5-4.1c0.1-1.5,0.3-3.5,1.4-4.8
	C107.4,104.2,109.1,103.2,111.5,102.5L111.5,102.5z"/>
<path class="st2" d="M141,113.2c2.1,0.4,3.5,1.4,4.4,2.9c0.9,1.5,1.7,4.3,1,6.2c-0.8,1.9-3.5,4.2-5.5,5c-2,0.8-4.7,0.8-6.2-0.2
	c-1.5-0.9-2.5-2.7-2.8-5.4c0.8,1.9,1.8,3.2,3.1,4c1.3,0.7,2.9,0.9,4.6,0.5c1.6-0.5,4.3-2.1,5.2-3.4c0.9-1.4,1-3,0.4-4.6
	C144.5,116.5,143.1,115,141,113.2L141,113.2z"/>
<path class="st2" d="M120,51.2c-0.3-2-0.2-3.5,0.4-4.6c0.5-1.2,0.9-2.7,3-2.2c2.1,0.5,5.2,2.1,9.4,5c-3.6-2.1-6.3-3.3-8.2-3.7
	c-1.9-0.4-2.1,0.2-2.8,1.1C121,47.7,120.4,49.2,120,51.2L120,51.2z"/>
<path class="st2" d="M121.7,51.2l4.8,0.7c-0.9,0.5-1.7,0.6-2.5,0.5C123.2,52.3,122.4,51.9,121.7,51.2L121.7,51.2z"/>
<path class="st2" d="M160.1,64.9c1.7-1.1,2.7-2.2,3.1-3.4s1.3-2.5-0.4-3.7c-1.8-1.2-5.1-2.3-10.1-3.4c4,1.3,6.7,2.4,8.3,3.5
	c1.6,1,1.3,1.7,1.1,2.8C162,61.9,161.4,63.2,160.1,64.9L160.1,64.9z"/>
<path class="st2" d="M159,63.7l-3.8-3c0.2,0.9,0.6,1.7,1.3,2.2C157.1,63.3,158,63.6,159,63.7L159,63.7z"/>
<path class="st1" d="M126.9,74.3c-2.1,0.2-4.7,0.6-4.9,2.1c-0.2,1.4,1.6,4.2,3.8,6.3c2.3,2.1,6.8,5.4,9.5,5.9
	c2.6,0.5,5.1-1.4,6.2-2.8c1-1.4,1.3-3.7,0.1-5.5c-1.2-1.8-4.8-4.4-7.3-5.4C131.9,73.9,129,74.1,126.9,74.3L126.9,74.3z"/>
<path class="st2" d="M131.8,86.1c0.6-0.7,0.9-1.7,0.8-2.8c-0.1-1.2-1.8-3.6-1.5-4.3c0.3-0.7,2,0,3.4,0.3c1.4,0.3,3,0.7,4.8,1.3
	c-3.3-0.7-5.3-0.8-6.2-0.4c-0.9,0.4,1.2,1.7,1,2.8C133.9,83.8,133.1,84.9,131.8,86.1L131.8,86.1z"/>
<path class="st2" d="M142.9,83.8c-0.7,1.4-1.8,2.5-3.1,3.1c-1.4,0.7-2.9,1.1-5,0.9c-2.2-0.3-4.7-1.2-7.8-2.6c1.5,1.3,3.1,2.3,5,3
	c1.8,0.6,4.3,1.2,5.8,1c1.5-0.2,2.5-1.1,3.4-2C142,86.3,142.6,85.2,142.9,83.8L142.9,83.8z"/>
<path class="st2" d="M124,74.4c0.6-0.2,1.7-0.4,3.4-0.4c1.7-0.1,4.7-0.5,6.7,0c1.9,0.5,3.2,1.5,4.9,2.8s3.6,3,5.6,5.1
	c-3.2-3.1-6.1-5.2-8.8-6.3c-2.6-1.1-5.2-0.2-7.1-0.4C126.7,75,125.1,74.7,124,74.4L124,74.4z"/>
<path d="M123.9,110.5l4.2,1.6l-0.4,0.6l-3.6-1.2L123.9,110.5L123.9,110.5z"/>
<path class="st5" d="M128.6,104.5c-1.8-2-3.2-3.8-4.3-5.6c-1.1-1.8-1.9-3.5-2.1-5c-0.2-1.5,0.3-3.2,0.9-4c0.6-0.8,2-0.9,3-0.8
	c0.9,0.1,1.9,1,2.6,1.5c0.6,0.5,1.1,1.1,1.4,1.7c1.5-0.9,2.9-1.2,4.1-1c1.3,0.1,3,0.8,3.3,2c0.3,1.1,0.2,2.8-1.3,4.7
	C134.7,100,132.2,102.1,128.6,104.5L128.6,104.5z"/>
<path d="M129.5,91.7c-0.3-0.9-0.8-1.6-1.5-2.1c-0.8-0.5-1.9-1-3-0.9c-1.1,0.1-2.7,0.5-3.3,1.8c-0.6,1.3-1,3.4,0,5.6
	c1,2.2,3.1,4.7,6.2,7.6c-1.2-1.8-2.2-3.5-3-5.2c-0.9-1.7-2-3.7-2.2-5.1c-0.2-1.4,0.5-2.6,1.2-3.2c0.8-0.5,2.5-0.2,3.5,0.1
	C128.2,90.6,128.9,91,129.5,91.7L129.5,91.7z"/>
<path d="M131.6,92.1c0.5-0.8,1.3-1.2,2.2-1.2c1,0,2.8,0.1,3.6,1c0.8,0.9,2.3,2.3,1,4.3c-1.3,2-4.2,4.4-8.8,7.5
	c2.6-2.3,4.5-4.1,5.7-5.7c1.2-1.6,1.3-2.7,1.4-3.6c0-0.9-0.4-1.2-1.2-1.6C134.7,92.4,133.4,92.2,131.6,92.1L131.6,92.1z"/>
<path class="st6" d="M72.8,40.1c-1-0.6-2.1-1-3.5-1.1c-1.4-0.2-3-0.3-4.6,0.3C63,40,60.7,41.5,59.7,43c-0.9,1.4-1,3.1-0.8,5.1
	c0.1,1.9,1,4,1.6,6.4c0.5,2.4,1.2,5.9,1.7,7.8c0.4,1.9,0.8,3,0.9,3.5c-1.7,1.5-3.2,3.1-4.5,5.2c-1.3,2-2.1,4-3.3,6.7
	c-1.3,2.7-3.1,6.6-4.1,9.2c-1,2.6-1.6,4.2-1.7,6.5c-0.2,2.3,0,5.5,0.7,7c0.6,1.5,1.4,1.8,3,2.2c1.7,0.4,5,0.1,6.8,0
	c1.8-0.1,3.3-0.3,4-0.4c0.7-0.1,0.8-0.2,0.2-0.3c-1,1-1.8,2.4-2.2,4.3c-0.5,1.8-0.6,4.4-0.4,6.6c0.2,2.2,0.5,4.6,1.7,6.5
	c1.2,1.8,3.2,3.3,5.5,4.4c2.2,1,5.4,1.8,7.7,1.9c2.3,0.1,4.2-0.5,5.9-1.2s3.4-1.9,4.5-3.2c1-1.3,1.4-3,1.8-4.6
	c0.3-1.6,0.3-3.2,0.2-4.6c-0.1-1.4-0.4-2.7-0.9-3.9l4.6,0.1c-0.3,1.2-0.3,2.7-0.2,4.8c0.1,2,0.1,5.1,0.8,7.1c0.8,2,1.8,3.7,3.6,4.9
	c1.9,1.1,5,1.8,7.5,1.7c2.5-0.1,5.2-1.5,7.1-2.5c1.8-1,2.7-1.8,3.7-3.5c0.9-1.6,1.7-4,1.9-6.2c0.3-2.2,0-5-0.3-7
	c-0.3-2-0.5-3.3-1.4-4.7c-0.9-1.4-2.3-2.6-4.1-3.7l3.4-2.3c1.6,0.6,3.3,0.8,5.1,0.7c1.8-0.1,4.4-0.5,5.7-1.2
	c1.2-0.7,1.6-1.6,1.7-3.2c0.1-1.6-0.3-3.7-1.2-6.2c-0.8-2.6-2.3-6.4-3.8-8.8c-1.5-2.4-2.9-3.6-5-5.2c-2.2-1.7-4.7-3.2-7.8-4.7
	c0.6-1.8,1.1-3.9,1.4-6.4c0.3-2.5,0.4-5.3,0.3-8.4c0.9-0.5,1.7-1.4,2.3-2.5c0.6-1.2,1.3-3,1.3-4.5c0-1.5-0.4-3.4-1.3-4.7
	c-0.9-1.3-2.6-2.4-4-2.8c-1.5-0.5-2.9-0.5-4.7-0.1c-1.8,0.3-3.7,1-5.8,2c-1.4-1-3.1-1.7-5.3-2.2c-2.2-0.6-5.6-0.9-7.7-0.9
	c-2.1-0.1-3.3-0.1-5,0.6c-1.8,0.6-3.5,1.7-5.4,3.2L72.8,40.1L72.8,40.1z"/>
<path class="st1" d="M67.9,108.5c-0.6,1.4-1,3-0.5,4.6c0.5,1.6,1.5,3.9,3.5,5c2,1.1,5.8,2,8.1,1.5c2.3-0.6,5.1-2.2,5.6-4.6
	c0.5-2.5-0.6-8.1-2.8-9.9c-2.3-1.7-8.2-1.1-10.6-0.5C68.8,105.1,68.5,107,67.9,108.5L67.9,108.5z"/>
<path class="st1" d="M99.4,108c-0.7,1.6-0.3,4.8,0.2,6.6c0.4,1.8,0.8,3.7,2.3,4.1c1.6,0.4,5.3-0.4,6.9-1.7c1.6-1.3,2.5-4.3,2.6-6.1
	c0.1-1.8-0.6-3.5-1.8-4.5c-1.3-1-3.9-1.7-5.6-1.5C102.3,105.3,100.1,106.3,99.4,108L99.4,108z"/>
<path class="st1" d="M103.5,44.7c2.3,0,4,0.4,5,1.2c1,0.8,1,2.4,0.8,3.6c-0.2,1.2-0.9,2.3-2.2,3.5c-3.1-1.7-4.8-3.2-5.4-4.6
	C101.1,47,101.7,45.8,103.5,44.7L103.5,44.7z"/>
<path class="st1" d="M73.1,45.9c-2.9-0.6-5-0.7-6.3-0.5c-1.3,0.2-1.2,0.8-1.5,1.8s-0.3,2.5,0,4.5c2,0.5,3.6,0.3,5-0.6
	C71.6,50,72.6,48.4,73.1,45.9L73.1,45.9z"/>
<path class="st2" d="M78.6,44.2c-1.2-1.1-2.6-2.1-4.3-2.9c-1.7-0.8-3.7-1.9-5.7-1.9c-2,0-4.6,0.8-6.2,1.9c-1.6,1.2-3.1,2.7-3.1,5
	c0,2.3,0.9,5.2,2.9,8.8c-1.4-1-2.5-2.3-3.2-4c-0.7-1.7-1.2-4.3-0.9-6.1c0.3-1.8,1.5-3.5,2.8-4.6c1.3-1.2,3.3-2.1,4.9-2.4
	c1.6-0.3,2.4-0.6,4.6,0.4C72.5,39.5,75.2,41.4,78.6,44.2L78.6,44.2z"/>
<path class="st2" d="M75.2,41c2.3-1.3,4.3-2.2,6.2-2.7c1.8-0.5,2.9-0.5,4.9-0.5c2,0.1,4.9,0.5,6.7,0.9c1.8,0.3,3.2,0.5,4.3,0.9
	c-1.8-1.1-3.8-1.8-6.2-2.2c-2.4-0.5-5.7-0.6-8-0.4c-2.3,0.3-4.4,1.2-5.7,1.9C76,39.5,75.3,40.2,75.2,41L75.2,41z"/>
<path class="st2" d="M95.7,44.5c0.5-1.4,1.4-2.7,2.7-3.8c1.3-1.1,3.1-2.4,5-2.8c1.9-0.4,4.4-0.3,6.3,0.3c1.8,0.6,3.5,1.8,4.6,3.3
	c1,1.6,2,4,1.5,5.9c-0.5,1.9-2.1,3.6-4.6,5.3c1.5-1,2.4-2.2,2.9-3.8c0.4-1.6,0.4-3.8-0.3-5.5c-0.8-1.7-2.5-3.8-4.3-4.4
	c-1.9-0.6-4.4-0.4-6.7,0.5C100.3,40.6,98,42.1,95.7,44.5L95.7,44.5z"/>
<path class="st2" d="M110.2,54.2c0.4,1.4,0.5,3,0.3,4.9c-0.2,1.9-0.8,4.5-1.4,6.5c-0.6,1.9-1.4,3.3-2.3,5c-1,1.7-2.2,3.6-3.5,4.9
	s-2.6,2.2-4,2.9c1.6-0.3,3.1-0.9,4.5-1.9c1.4-1,2.6-2.1,3.8-4c1.1-1.9,2.4-4.9,3-7.4c0.6-2.5,0.8-5.7,0.7-7.5
	C111.2,55.8,110.8,54.6,110.2,54.2L110.2,54.2z"/>
<path class="st2" d="M62.1,56.3c-0.3,2.3-0.4,4.4-0.2,6.3c0.1,1.9,0.4,3.1,1.2,4.9c0.9,1.8,2,4.3,3.9,5.9c1.9,1.7,4.4,3,7.5,4
	c-2.6-1.4-4.8-3.2-6.6-5.4c-1.8-2.2-3.1-5.3-4.1-7.9C62.9,61.4,62.3,58.9,62.1,56.3L62.1,56.3z"/>
<path class="st2" d="M74.5,67.4c-2-1.5-2.8-3-2.5-4.8c0.3-1.8,2.4-4.7,4.1-5.5c1.7-0.8,5-0.5,6.1,1c1.1,1.5,1.3,4.2,0.5,8.1
	c0.1-3.9-0.5-6.3-1.9-7.2c-1.4-0.9-5.2,0.2-6.2,1.6C73.5,62.1,73.5,64.3,74.5,67.4L74.5,67.4z"/>
<path class="st2" d="M78.9,62.2c1.1,0,2,1.3,2,2.9c0,1.6-0.9,2.9-2,2.9c-1.1,0-2-1.3-2-2.9C77,63.5,77.9,62.2,78.9,62.2"/>
<path class="st2" d="M99.8,67.3c1.8-1.4,2.6-2.8,2.3-4.5c-0.3-1.6-2.3-4.5-3.9-5.2c-1.6-0.7-4.7-0.5-5.8,0.9s-1.2,3.9-0.5,7.6
	c-0.1-3.7,0.5-5.9,1.8-6.8c1.3-0.9,4.9,0.2,5.9,1.5C100.7,62.3,100.7,64.4,99.8,67.3L99.8,67.3z"/>
<path class="st2" d="M95.6,62.4c1,0,1.9,1.2,1.9,2.7c0,1.5-0.8,2.7-1.9,2.7c-1,0-1.9-1.2-1.9-2.7C93.7,63.6,94.5,62.4,95.6,62.4"/>
<path class="st2" d="M61.2,69.4c-3.4,3.6-6.1,7-8.1,10.5c-2.1,3.4-3.3,6.8-4,10s-0.7,6.9-0.2,9.1c0.4,2.2,0.6,3.7,2.8,4.2
	c2.2,0.4,5.4-0.1,10-1.6c-4,0.9-6.8,1-8.7,0.1c-1.9-0.9-2.5-2.6-2.5-5.5c0-2.9,0.6-7.1,2.5-11.6C54.7,80,57.5,75.1,61.2,69.4
	L61.2,69.4z"/>
<path class="st2" d="M69.7,80c-0.8,0.7-1.4,2.1-2,4.5c-0.6,2.3-1.1,5.5-1.5,9.5c1.1-3.2,1.9-5.9,2.5-8.3
	C69.2,83.4,69.5,81.6,69.7,80L69.7,80z"/>
<path class="st2" d="M103,81.4c0.3,1.8,0.9,3.7,1.9,5.8c1,2.1,2.5,4.4,4.3,6.8c-1-2.9-2-5.3-3-7.4C105.2,84.5,104.1,82.8,103,81.4
	L103,81.4z"/>
<path class="st2" d="M111.8,70.5c3.5,1.5,6.3,3.7,8.5,6.6c2.1,2.9,3.6,7.2,4.3,10.5c0.8,3.1,2.3,6.9,0.2,8.4
	c-2.1,1.4-6.3,1.4-12.8,0c3.3,1.7,6.1,2.6,8.5,2.8c2.4,0.1,4.5-0.6,5.7-1.8c1.2-1.3,1.8-2.2,1.2-5.6c-0.7-3.4-2.6-11-5.3-14.5
	C119.6,73.3,116.2,71.2,111.8,70.5L111.8,70.5z"/>
<path class="st2" d="M82.2,124.1c-2.9,1.5-5.8,2-8.9,1.6c-3.1-0.5-7.5-2.1-9.6-4.3c-2.1-2.3-2.8-6.1-3-9.1c-0.2-3,0.4-6.3,1.8-8.7
	c1.3-2.4,3.5-4.6,6.1-5.5c2.7-0.9,5.8-0.9,9.7,0.1c-3.6,0-6.6,0.5-9,1.4c-2.4,0.9-4.1,2.1-5.3,4c-1.2,2-1.9,5.1-1.9,7.7
	c0.1,2.7,0.8,6,2.3,8.1c1.5,2.1,3.9,3.7,6.9,4.6C74.4,124.7,77.9,124.7,82.2,124.1L82.2,124.1z"/>
<path class="st2" d="M99.1,125.9c2.2,0.4,4.3,0.3,6.5-0.3c2.2-0.6,4.8-1.8,6.6-3.3c1.7-1.5,2.9-3.1,3.6-5.5c0.7-2.4,0.8-6.2,0.5-8.6
	c-0.3-2.4-1.3-4-2.4-5.5c-1.1-1.5-2.1-2.9-4.3-3.5c-2.3-0.6-5.4-0.6-9.4-0.1c2.3-1,4.6-1.4,6.9-1.4c2.3,0,5,0.4,6.7,1.6
	c1.7,1.2,2.7,3.4,3.4,5.7c0.6,2.3,0.5,5.5,0.5,7.8c-0.1,2.2-0.2,3.9-0.9,5.7c-0.8,1.9-2,3.9-3.6,5.3c-1.6,1.4-3.5,2.4-5.8,2.8
	C105.1,127,102.3,126.7,99.1,125.9L99.1,125.9z"/>
<path class="st2" d="M94.9,121.1c-1.7-1.7-2.7-3.7-3.1-6.3c-0.4-2.6-0.1-6.7,0.6-9c0.7-2.4,1.8-4.1,3.5-5.2
	c-1.4,2.7-2.4,5.1-2.8,7.4c-0.5,2.2-0.3,3.6,0,5.9C93.3,116,93.9,118.4,94.9,121.1L94.9,121.1z"/>
<path class="st2" d="M85.1,104.2c1.3,1.7,2.2,3.9,2.6,6.7c0.4,2.8,0.4,6.1-0.1,10c1.2-2.7,1.8-5.1,1.9-7.4c0.1-2.3-0.6-4.9-1.3-6.4
	C87.5,105.6,86.5,104.6,85.1,104.2L85.1,104.2z"/>
<path class="st2" d="M73.5,103.7c-1.8-0.1-3.2,0.5-4.2,1.9c-1,1.4-1.8,4.2-1.7,6.4c0.2,2.2,1.2,5.2,2.6,6.7c1.4,1.4,3.9,2.3,5.8,2
	c1.9-0.3,3.7-1.5,5.6-3.7c-2.5,1.6-4.6,2.4-6.3,2.4c-1.7,0-2.9-1.3-3.9-2.3c-1-1-1.4-2.2-1.8-3.7c-0.4-1.5-0.9-3.4-0.2-5
	C70.1,106.6,71.4,105.2,73.5,103.7L73.5,103.7z"/>
<path class="st2" d="M104.9,104.6c2.1-0.2,3.8,0.2,5.1,1.4c1.3,1.2,3,3.5,2.9,5.6c-0.1,2-2.1,5.1-3.6,6.5c-1.7,1.4-4.2,2.2-5.9,1.8
	c-1.8-0.4-3.2-1.8-4.4-4.3c1.3,1.5,2.7,2.5,4.2,2.8c1.4,0.3,3.1,0,4.5-1c1.4-1,3.4-3.3,3.9-4.9c0.4-1.6,0-3.1-1.1-4.5
	C109.2,106.7,107.4,105.6,104.9,104.6L104.9,104.6z"/>
<path class="st2" d="M65.4,52.3c-0.9-1.8-1.3-3.3-1.1-4.5c0.2-1.3,0-2.8,2.1-3c2.1-0.2,5.6,0.4,10.5,1.8c-4.1-0.8-7-1.1-8.9-0.9
	c-1.9,0.2-1.9,0.8-2.3,2C65.2,48.8,65.1,50.3,65.4,52.3L65.4,52.3z"/>
<path class="st2" d="M67,51.8l4.8-0.8c-0.7,0.7-1.4,1.2-2.2,1.3C68.8,52.4,67.9,52.2,67,51.8L67,51.8z"/>
<path class="st2" d="M107.8,52.8c1.2-1.6,1.8-3,1.9-4.3c0.1-1.3,0.5-2.8-1.5-3.4c-2.1-0.6-5.6-0.6-10.7-0.1c4.2-0.1,7.1,0.2,9,0.7
	c1.8,0.5,1.7,1.2,2,2.3S108.5,50.8,107.8,52.8L107.8,52.8z"/>
<path class="st2" d="M106.4,51.9l-4.6-1.7c0.5,0.8,1.1,1.4,1.9,1.7C104.5,52.1,105.4,52.2,106.4,51.9L106.4,51.9z"/>
<path class="st1" d="M79.3,72.1c-1.9,0.9-4.2,2.1-4,3.5c0.3,1.4,2.8,3.5,5.6,4.8c2.8,1.3,8.2,2.9,10.9,2.6c2.7-0.4,4.4-3,5-4.6
	c0.5-1.7,0-3.9-1.7-5.3c-1.7-1.4-5.9-2.6-8.6-2.8C83.8,70.1,81.2,71.2,79.3,72.1L79.3,72.1z"/>
<path class="st2" d="M87.6,81.7c0.4-0.9,0.3-1.9-0.1-2.9c-0.5-1.1-2.9-2.9-2.8-3.6c0.1-0.7,1.9-0.6,3.3-0.8c1.4-0.2,3-0.3,4.9-0.3
	c-3.3,0.4-5.3,0.9-6,1.5c-0.7,0.6,1.6,1.3,1.8,2.3C88.8,78.9,88.4,80.2,87.6,81.7L87.6,81.7z"/>
<path class="st2" d="M97.4,76.1c-0.3,1.6-0.9,2.9-2,4c-1.1,1.1-2.4,2-4.5,2.4c-2.2,0.4-4.8,0.4-8.2,0c1.9,0.8,3.7,1.2,5.7,1.2
	c1.9,0.1,4.5-0.2,5.9-0.9c1.4-0.6,2-1.8,2.6-2.9C97.3,78.8,97.5,77.6,97.4,76.1L97.4,76.1z"/>
<path class="st2" d="M76.5,73.1c0.5-0.4,1.5-0.9,3.1-1.5c1.6-0.6,4.3-1.9,6.3-2.1c2-0.2,3.5,0.4,5.6,1.2c2.1,0.7,4.3,1.7,6.9,3.1
	c-4-1.9-7.4-3-10.3-3.2c-2.9-0.3-5,1.4-6.9,1.9C79.2,72.8,77.7,73,76.5,73.1L76.5,73.1z"/>
<path d="M87.8,107.4l4.5,0.2l-0.1,0.7l-3.8,0L87.8,107.4L87.8,107.4z"/>
<path class="st3" d="M90.3,100.3c-2.3-1.3-4.2-2.6-5.8-3.9c-1.6-1.4-2.9-2.7-3.6-4s-0.8-3.1-0.4-4c0.4-0.9,1.6-1.5,2.6-1.7
	c0.9-0.2,2.1,0.3,2.9,0.6c0.8,0.3,1.4,0.7,1.8,1.2c1.2-1.3,2.3-2.1,3.6-2.3c1.2-0.3,3.1-0.1,3.8,0.8c0.7,0.9,1.1,2.6,0.3,4.9
	C94.7,94.1,93,96.9,90.3,100.3L90.3,100.3z"/>
<path d="M87.1,87.8c-0.5-0.8-1.2-1.3-2.1-1.6c-0.9-0.3-2.2-0.4-3.1,0.1c-1,0.5-2.5,1.4-2.6,2.7c-0.1,1.4,0.1,3.5,1.7,5.3
	c1.7,1.8,4.4,3.5,8.3,5.2c-1.7-1.3-3.1-2.6-4.5-4c-1.4-1.4-3.1-2.9-3.7-4.1c-0.6-1.3-0.4-2.7,0.2-3.4c0.6-0.8,2.3-1,3.3-1
	C85.6,87.1,86.4,87.3,87.1,87.8L87.1,87.8z"/>
<path d="M89.3,87.5c0.3-0.9,0.8-1.5,1.8-1.8c0.9-0.4,2.7-0.8,3.8-0.2c1,0.6,2.9,1.5,2.3,3.8c-0.6,2.3-2.6,5.5-6,9.8
	c1.8-3,3-5.3,3.6-7.2c0.6-1.9,0.4-3,0.2-3.9c-0.3-0.8-0.7-1-1.7-1.1C92.3,86.9,91,87.1,89.3,87.5L89.3,87.5z"/>
</svg>
