<?xml version="1.0" encoding="utf-8"?>
<!-- Generator: Adobe Illustrator 21.0.0, SVG Export Plug-In . SVG Version: 6.00 Build 0)  -->
<svg version="1.1" id="Calque_1" xmlns="http://www.w3.org/2000/svg" xmlns:xlink="http://www.w3.org/1999/xlink" x="0px" y="0px"
	 viewBox="0 0 170.1 170.1" style="enable-background:new 0 0 170.1 170.1;" xml:space="preserve">
<style type="text/css">
	.st0{fill:#EBC275;}
	.st1{fill:#948547;}
	.st2{stroke:#000000;stroke-width:3.600000e-02;stroke-miterlimit:10;}
	.st3{fill:#CD3204;}
	.st4{fill:none;stroke:#191919;stroke-width:4;stroke-linecap:square;}
	.st5{fill:none;stroke:#191919;stroke-width:4;}
	.st6{fill:#666666;stroke:#191919;stroke-width:4;stroke-miterlimit:10;}
</style>
<g>
	<g>
		<g id="Layer_1_1_">
			<g>
				<path class="st0" d="M76.5,10.6c-1-0.9-2.2-1.5-3.7-1.9c-1.5-0.4-3.3-0.9-5.3-0.4c-1.9,0.4-4.8,1.7-6.2,3.2
					c-1.3,1.5-1.7,3.4-1.9,5.6c-0.2,2.2,0.4,4.7,0.6,7.5c0.2,2.8,0.3,6.8,0.5,9c0.1,2.2,0.3,3.5,0.4,4c-2.2,1.3-4.1,3-5.9,5
					c-1.8,2-3,4.1-4.9,6.9c-1.9,2.8-4.6,6.8-6.2,9.6c-1.6,2.8-2.5,4.5-3.1,7c-0.6,2.5-0.9,6.2-0.5,8c0.4,1.8,1.2,2.3,3,3
					c1.8,0.7,5.6,1,7.7,1.2c2.1,0.2,3.8,0.2,4.6,0.2c0.8,0,0.9-0.1,0.2-0.3c-1.4,1-2.5,2.4-3.3,4.4c-0.9,2-1.4,4.8-1.6,7.3
					c-0.2,2.5-0.3,5.3,0.7,7.6c1,2.2,3,4.3,5.4,5.9c2.3,1.6,5.7,2.9,8.3,3.5c2.5,0.5,4.7,0.2,6.9-0.3c2.1-0.5,4.1-1.5,5.6-2.8
					c1.4-1.3,2.2-3.1,2.8-4.8c0.6-1.7,0.9-3.5,1-5.2c0.1-1.6,0-3.1-0.4-4.5l5.2,0.9c-0.5,1.3-0.9,3-1.1,5.3
					c-0.2,2.2-0.8,5.7-0.3,8.1c0.5,2.4,1.3,4.5,3.2,6.1s5.3,3,8.1,3.3c2.8,0.3,6.1-0.7,8.3-1.5c2.2-0.8,3.4-1.6,4.7-3.2
					c1.3-1.6,2.6-4.2,3.3-6.6c0.7-2.5,0.9-5.6,0.9-7.9c0-2.2,0-3.8-0.7-5.5c-0.8-1.7-2.1-3.4-3.9-4.9l4.2-2c1.7,0.9,3.5,1.5,5.6,1.7
					c2.1,0.2,5,0.3,6.5-0.3c1.5-0.6,2.1-1.6,2.5-3.3c0.4-1.8,0.3-4.2-0.2-7.2c-0.5-3-1.5-7.6-2.7-10.5c-1.2-2.9-2.6-4.5-4.7-6.8
					c-2.1-2.3-4.7-4.4-7.9-6.7c1-1.9,1.9-4.2,2.7-7c0.7-2.8,1.3-5.8,1.8-9.4c1.2-0.4,2.1-1.2,3-2.4c0.9-1.2,2-3.1,2.3-4.8
					c0.3-1.7,0.1-3.9-0.6-5.5c-0.8-1.6-2.4-3.1-4-3.9c-1.6-0.8-3.2-1-5.2-1c-2.1,0-4.3,0.4-6.9,1.2c-1.4-1.3-3.2-2.5-5.6-3.4
					c-2.4-1-6.1-2-8.5-2.4c-2.4-0.5-3.7-0.7-5.7-0.3c-2.1,0.4-4.3,1.3-6.7,2.7L76.5,10.6L76.5,10.6z"/>
				<path class="st1" d="M58.8,86.3c-1,1.5-1.6,3.2-1.4,5.1c0.3,1.9,1,4.6,3,6.2c2,1.6,6.1,3.2,8.8,3.1c2.7-0.2,6.1-1.5,7.1-4.2
					c0.9-2.7,0.8-9.2-1.4-11.6c-2.2-2.4-9-2.7-11.7-2.4C60.5,82.7,59.8,84.8,58.8,86.3L58.8,86.3z"/>
				<path class="st1" d="M94.3,91.4c-1.1,1.7-1.2,5.3-1,7.4c0.1,2.1,0.2,4.3,1.9,5c1.7,0.7,6,0.5,8.1-0.6c2-1.2,3.6-4.4,4-6.4
					c0.4-2,0-4-1.2-5.3c-1.2-1.4-4.1-2.6-6-2.7C98,88.9,95.4,89.7,94.3,91.4L94.3,91.4z"/>
				<path class="st1" d="M110.1,21.2c2.6,0.4,4.4,1.1,5.3,2.2c0.9,1.1,0.7,2.9,0.3,4.2c-0.5,1.3-1.5,2.4-3,3.5
					c-3.1-2.5-4.9-4.5-5.3-6.2C107,23.3,107.9,22.1,110.1,21.2L110.1,21.2z"/>
				<path class="st1" d="M75.9,17.1c-3.2-1.1-5.5-1.7-7-1.7c-1.5,0-1.5,0.6-2,1.8c-0.5,1.1-0.7,2.8-0.8,5c2.2,0.9,4,1,5.7,0.1
					C73.4,21.5,74.8,19.8,75.9,17.1L75.9,17.1z"/>
				<path class="st2" d="M82.2,16.2c-1.1-1.5-2.5-2.8-4.3-4c-1.8-1.2-3.8-2.8-6.1-3.1c-2.2-0.3-5.3,0-7.3,1.1c-2,1-3.9,2.5-4.4,5.1
					s0.1,6,1.7,10.4c-1.4-1.4-2.4-3.1-2.8-5.1c-0.5-2.1-0.6-5,0-7c0.7-2,2.3-3.6,3.9-4.7c1.6-1.1,4-1.8,5.9-1.8
					c1.8-0.1,2.8-0.3,5,1.2C76.3,9.9,79,12.5,82.2,16.2L82.2,16.2z"/>
				<path class="st2" d="M79.1,12c2.8-1,5.2-1.7,7.4-1.9c2.2-0.3,3.4-0.1,5.5,0.3c2.2,0.4,5.3,1.5,7.4,2.2c2,0.7,3.5,1.2,4.6,1.7
					c-1.8-1.5-3.9-2.7-6.5-3.6c-2.6-1-6.3-1.7-8.9-1.9c-2.7-0.1-5.2,0.6-6.8,1.2C80.2,10.5,79.3,11.2,79.1,12L79.1,12z"/>
				<path class="st2" d="M101.4,19.5c0.8-1.5,2.1-2.8,3.7-3.8c1.6-1,3.9-2.1,6.1-2.2c2.2-0.1,5,0.4,7,1.5c1.9,1,3.7,2.6,4.5,4.5
					c0.8,1.9,1.5,4.9,0.6,6.9c-0.9,2-2.9,3.7-6.1,5.2c1.8-0.8,3.1-2.1,3.9-3.7c0.7-1.7,1.2-4.2,0.6-6.2c-0.6-2-2.1-4.7-4.1-5.7
					c-2-1.1-4.9-1.2-7.6-0.6C107.3,16,104.4,17.4,101.4,19.5L101.4,19.5z"/>
				<path class="st2" d="M115.9,33c0.2,1.6,0,3.5-0.5,5.6c-0.6,2.1-1.7,5-2.7,7c-1,2-2.1,3.4-3.5,5.1c-1.4,1.7-3.1,3.7-4.8,4.9
					c-1.6,1.2-3.3,2.1-5,2.5c1.9,0,3.6-0.4,5.4-1.3c1.7-0.9,3.3-1.9,5-3.8c1.6-1.9,3.6-5,4.7-7.7c1.1-2.7,1.8-6.2,2.1-8.3
					C116.8,35,116.6,33.7,115.9,33L115.9,33z"/>
				<path class="st2" d="M61.6,26.8c-0.8,2.5-1.2,4.8-1.4,7c-0.2,2.1-0.1,3.5,0.5,5.8c0.6,2.2,1.5,5.2,3.4,7.4
					c1.9,2.2,4.4,4.1,7.7,5.8c-2.7-2.1-4.8-4.4-6.4-7.3c-1.6-2.8-2.6-6.5-3.2-9.6C61.6,32.7,61.4,29.8,61.6,26.8L61.6,26.8z"/>
				<path class="st2" d="M73.5,41.5c-1.9-2-2.6-3.9-2-5.8c0.6-1.9,3.5-4.9,5.6-5.4c2.1-0.6,5.7,0.3,6.7,2.2c1,1.9,0.7,4.9-0.9,9.2
					c0.8-4.4,0.6-7.2-0.8-8.5c-1.4-1.3-5.8-0.7-7.3,0.7C73.4,35.4,73,37.8,73.5,41.5L73.5,41.5z"/>
				<path class="st2" d="M79.5,36.4c1.2,0.2,2,1.8,1.7,3.6c-0.3,1.8-1.5,3.1-2.8,2.9s-2-1.8-1.7-3.6C77,37.5,78.3,36.2,79.5,36.4"/>
				<path class="st2" d="M102,45.9c2.3-1.2,3.4-2.7,3.4-4.6c0-1.9-1.7-5.4-3.4-6.5s-5.2-1.4-6.6,0c-1.4,1.5-2.1,4.2-1.9,8.5
					c0.5-4.1,1.6-6.6,3.2-7.3c1.6-0.7,5.4,1.1,6.3,2.8C103.9,40.4,103.5,42.8,102,45.9L102,45.9z"/>
				<path class="st2" d="M98.1,39.6c1.2,0.2,1.9,1.7,1.6,3.4c-0.3,1.7-1.4,2.9-2.6,2.7c-1.2-0.2-1.9-1.7-1.6-3.4
					C95.8,40.6,96.9,39.4,98.1,39.6"/>
				<path class="st2" d="M58.3,41.4c-4.5,3.4-8.1,6.8-11,10.3c-2.9,3.5-4.9,7-6.3,10.5c-1.4,3.5-2,7.6-1.9,10.2
					c0.1,2.6,0.1,4.3,2.4,5.2c2.3,0.9,6.1,0.8,11.5,0c-4.7,0.3-7.8-0.1-9.8-1.5c-1.9-1.4-2.3-3.4-1.8-6.6c0.5-3.3,2-7.9,4.8-12.6
					C49.1,52.1,53.1,47.1,58.3,41.4L58.3,41.4z"/>
				<path class="st2" d="M65.9,54.8c-1,0.6-2,2.1-3,4.7c-1.1,2.5-2.2,5.9-3.4,10.4c1.8-3.4,3.2-6.3,4.3-8.8
					C64.7,58.5,65.5,56.5,65.9,54.8L65.9,54.8z"/>
				<path class="st2" d="M103,62.3c0,2,0.3,4.3,1.1,6.8c0.8,2.6,2,5.3,3.6,8.4c-0.6-3.4-1.3-6.3-2.1-8.9C104.9,66.1,104,64,103,62.3
					L103,62.3z"/>
				<path class="st2" d="M114.9,51.6c3.7,2.4,6.4,5.3,8.4,8.9c1.9,3.6,2.7,8.8,3,12.5c0.3,3.7,1.4,8.2-1.2,9.4
					c-2.7,1.2-7.3,0.4-14.3-2.3c3.4,2.5,6.4,4,9,4.6c2.6,0.6,5.2,0.2,6.7-1c1.5-1.2,2.4-2.2,2.3-6c-0.2-3.9-1-12.8-3.3-17.2
					C123.1,56.2,119.6,53.2,114.9,51.6L114.9,51.6z"/>
				<path class="st2" d="M72.1,106.4c-3.5,1.2-6.9,1.2-10.3,0.2c-3.4-1.1-8-3.6-10-6.6c-2-3-2.1-7.4-1.8-10.8c0.3-3.4,1.6-7,3.6-9.5
					c1.9-2.4,4.7-4.5,7.8-5.1c3.1-0.6,6.7,0,10.8,1.8c-4.1-0.6-7.5-0.6-10.3,0c-2.8,0.6-4.9,1.6-6.6,3.6c-1.7,2-3.1,5.3-3.5,8.3
					c-0.4,3-0.2,6.8,1.2,9.5c1.3,2.7,3.7,4.9,6.9,6.3C63.2,105.7,67.2,106.4,72.1,106.4L72.1,106.4z"/>
				<path class="st2" d="M90.8,111.4c2.4,0.8,4.8,1.1,7.3,0.8c2.6-0.3,5.8-1.2,8-2.6c2.2-1.4,3.8-3,5-5.5c1.2-2.6,2-6.8,2.1-9.5
					c0-2.7-0.7-4.7-1.7-6.6c-1-1.9-1.8-3.6-4.2-4.7c-2.5-1.1-5.9-1.6-10.5-1.8c2.8-0.7,5.4-0.8,8-0.3c2.5,0.4,5.5,1.4,7.3,3
					c1.6,1.7,2.5,4.3,2.8,6.9c0.3,2.7-0.4,6.3-0.9,8.8c-0.5,2.5-0.9,4.3-2.1,6.2c-1.2,1.9-2.9,4-4.9,5.3c-2,1.2-4.3,2.1-7,2.1
					C97.2,113.7,94.2,112.9,90.8,111.4L90.8,111.4z"/>
				<path class="st2" d="M86.9,105.3c-1.6-2.2-2.4-4.7-2.4-7.7c0-3,1.1-7.5,2.3-10c1.2-2.6,2.8-4.3,4.8-5.2
					c-2.1,2.8-3.6,5.3-4.5,7.7c-0.9,2.4-1,4-1,6.6C86,99.3,86.3,102.1,86.9,105.3L86.9,105.3z"/>
				<path class="st2" d="M78.9,84.7c1.2,2.2,1.8,4.8,1.8,8c0,3.2-0.6,6.9-1.9,11.2c1.8-2.8,2.9-5.4,3.4-8c0.5-2.6,0.2-5.6-0.3-7.4
					C81.3,86.6,80.4,85.3,78.9,84.7L78.9,84.7z"/>
				<path class="st2" d="M65.9,82c-2-0.5-3.6,0-5,1.3c-1.4,1.4-2.8,4.4-3.1,6.9c-0.2,2.5,0.4,6,1.8,7.9c1.3,1.9,3.9,3.2,6.2,3.3
					c2.2,0,4.4-1,6.9-3.2c-3.1,1.3-5.5,1.8-7.4,1.6c-1.9-0.3-3-2-3.9-3.3c-0.9-1.3-1.2-2.8-1.3-4.5c-0.1-1.7-0.4-4,0.6-5.7
					C61.6,84.7,63.4,83.3,65.9,82L65.9,82z"/>
				<path class="st2" d="M101,88.6c2.4,0.1,4.2,0.9,5.5,2.5c1.3,1.6,2.7,4.5,2.2,6.8c-0.5,2.2-3.2,5.3-5.2,6.6
					c-2.1,1.2-5.1,1.7-7,0.9c-1.9-0.8-3.2-2.6-4.2-5.6c1.2,2,2.6,3.3,4.2,3.9c1.6,0.6,3.4,0.5,5.2-0.3c1.7-0.9,4.4-3.1,5.2-4.8
					c0.8-1.7,0.6-3.5-0.4-5.2C105.4,91.7,103.6,90.2,101,88.6L101,88.6z"/>
				<path class="st2" d="M66.1,23c-0.7-2.1-0.9-3.9-0.4-5.3c0.4-1.4,0.5-3.2,2.9-3c2.4,0.1,6.2,1.5,11.4,3.9
					c-4.4-1.6-7.7-2.5-9.9-2.7s-2.3,0.6-3,1.8C66.5,19,66.1,20.7,66.1,23L66.1,23z"/>
				<path class="st2" d="M67.9,22.6l5.5-0.1c-0.9,0.7-1.8,1-2.7,1C69.9,23.6,68.9,23.3,67.9,22.6L67.9,22.6z"/>
				<path class="st2" d="M113.5,31c1.6-1.6,2.6-3,2.9-4.4c0.3-1.4,1-3.1-1.1-4c-2.2-1-6.1-1.7-12-2c4.7,0.7,8,1.5,9.9,2.3
					c1.9,0.9,1.7,1.6,1.8,3C115.1,27.3,114.6,28.9,113.5,31L113.5,31z"/>
				<path class="st2" d="M112,29.8l-4.8-2.7c0.4,1,1,1.7,1.9,2.2C109.9,29.7,110.9,30,112,29.8L112,29.8z"/>
				<path class="st1" d="M78,47.6c-2.3,0.6-5.1,1.6-5.1,3.2c0.1,1.6,2.5,4.4,5.5,6.4c2.9,1.9,8.7,4.7,11.7,4.9
					c3,0.1,5.4-2.5,6.4-4.3c0.9-1.8,0.7-4.4-0.9-6.2c-1.7-1.8-6.2-4-9.1-4.7C83.5,46.2,80.3,47,78,47.6L78,47.6z"/>
				<path class="st2" d="M85.7,59.9c0.6-0.9,0.7-2,0.4-3.3c-0.4-1.3-2.7-3.7-2.5-4.6c0.2-0.8,2.2-0.3,3.9-0.3c1.6,0,3.4,0.2,5.6,0.5
					c-3.8-0.1-6.1,0.1-7,0.7c-0.9,0.6,1.6,1.7,1.6,2.9C87.5,57,86.9,58.3,85.7,59.9L85.7,59.9z"/>
				<path class="st2" d="M97.7,55.4c-0.6,1.7-1.6,3.1-3,4.1c-1.4,1-3,1.8-5.5,1.9c-2.5,0.1-5.5-0.4-9.2-1.5c2,1.2,3.9,2,6.1,2.4
					c2.1,0.4,5,0.6,6.7,0.1c1.7-0.5,2.6-1.7,3.4-2.8C97.1,58.3,97.6,57,97.7,55.4L97.7,55.4z"/>
				<path class="st2" d="M74.8,48.2c0.6-0.4,1.9-0.7,3.7-1.1c1.9-0.4,5.2-1.4,7.5-1.2c2.2,0.1,3.8,1.1,6,2.3
					c2.2,1.2,4.6,2.7,7.2,4.7c-4.2-2.9-7.8-4.7-11-5.5c-3.2-0.8-5.8,0.7-8,0.9C77.9,48.4,76.1,48.4,74.8,48.2L74.8,48.2z"/>
				<path d="M81.3,88.6l5,1l-0.3,0.8l-4.2-0.7L81.3,88.6L81.3,88.6z"/>
				<path class="st3" d="M85.4,81.2c-2.4-1.9-4.2-3.7-5.8-5.5c-1.5-1.8-2.8-3.5-3.3-5.2c-0.5-1.6-0.3-3.6,0.3-4.6
					c0.6-1,2.1-1.4,3.2-1.4c1.1,0,2.3,0.7,3.2,1.2c0.8,0.5,1.5,1,1.8,1.7c1.5-1.2,3-1.9,4.4-1.9c1.4-0.1,3.5,0.4,4.1,1.6
					c0.6,1.2,0.7,3.1-0.6,5.5C91.5,75,89.1,77.8,85.4,81.2L85.4,81.2z"/>
				<path d="M84.1,66.6c-0.5-1-1.2-1.7-2.1-2.1c-0.9-0.5-2.4-0.8-3.5-0.4c-1.2,0.4-3,1.1-3.4,2.6c-0.4,1.5-0.6,4,1,6.3
					c1.6,2.3,4.3,4.7,8.3,7.3c-1.6-1.8-3-3.5-4.3-5.2c-1.3-1.8-3-3.8-3.4-5.3c-0.4-1.5,0-3,0.8-3.8c0.8-0.7,2.8-0.7,3.9-0.5
					C82.5,65.6,83.4,65.9,84.1,66.6L84.1,66.6z"/>
				<path d="M86.6,66.7c0.4-1,1.2-1.5,2.3-1.7s3.2-0.4,4.3,0.5c1,0.8,3,2.2,1.9,4.6c-1.1,2.5-3.9,5.7-8.4,9.9c2.5-3,4.3-5.4,5.3-7.4
					c1-2,1-3.3,0.9-4.3c-0.1-1-0.6-1.3-1.6-1.5C90.1,66.5,88.6,66.5,86.6,66.7L86.6,66.7z"/>
			</g>
		</g>
	</g>
</g>
<title  id="title5893">Cart small</title>
<g>
	<path id="path4037_1_" class="st4" d="M56.5,146.3c-3.8,0.3-7.1-2.1-7.4-5.6c-0.3-2.8,1.6-5.4,4.5-6.4"/>
	<path id="path4039_1_" class="st5" d="M135.5,139.2l-79,7.1"/>
	<path id="path4041_1_" class="st5" d="M130.7,120.2l-75.2,15.1L39,88.4l-3.8-8L28.4,81l-1.2-4.5l15.2-1.4l4.1,11.2l83.6-7.6
		L130.7,120.2z"/>
	<path id="path4043_1_" class="st6" d="M70.2,161.7c0.1,1.1-0.8,2.1-2.1,2.3s-2.4-0.7-2.5-1.9c-0.1-1.1,0.8-2.1,2.1-2.3
		C69,159.8,70.1,160.6,70.2,161.7z"/>
	<path id="path4045_1_" class="st5" d="M74.7,161.3c0.3,3.4-2.5,6.4-6.3,6.8c-3.8,0.3-7.1-2.1-7.4-5.6c-0.3-3.4,2.5-6.4,6.3-6.8
		C71.1,155.4,74.4,157.9,74.7,161.3z"/>
	<path id="path4047_1_" class="st6" d="M124.9,156.8c0.1,1.1-0.8,2.1-2.1,2.3c-1.3,0.1-2.4-0.7-2.5-1.9c-0.1-1.1,0.8-2.1,2.1-2.3
		C123.7,154.8,124.8,155.6,124.9,156.8z"/>
	<path id="path4049_1_" class="st5" d="M129.4,156.4c0.3,3.4-2.5,6.4-6.3,6.8c-3.8,0.3-7.1-2.1-7.4-5.6c-0.3-3.4,2.5-6.4,6.3-6.8
		C125.8,150.5,129.1,153,129.4,156.4z"/>
	<path id="path4053_1_" class="st5" d="M41.9,94.8l86.6-7.8"/>
	<path id="path4055_1_" class="st5" d="M128.6,96.2l-84.3,7.6"/>
	<path id="path4057_1_" class="st5" d="M48.1,112.7l80.5-7.3"/>
	<path id="path4059_1_" class="st5" d="M129.5,114.6l-79,7.1"/>
	<path id="path4061_1_" class="st5" d="M52.8,130.8l45.8-4.1"/>
	<path id="path4065_1_" class="st5" d="M111.6,80.5l3.8,42.6"/>
	<path id="path4067_1_" class="st5" d="M101.4,81.4l4,43.9"/>
	<path id="path4069_1_" class="st5" d="M91.3,82.3l4,43.9"/>
	<path id="path4071_1_" class="st5" d="M81.2,83.2l4.1,45.3"/>
	<path id="path4073_1_" class="st5" d="M71.1,84.1l4.2,46"/>
	<path id="path4075_1_" class="st5" d="M60.9,85l4.2,46.7"/>
	<path id="path4077_1_" class="st5" d="M50.8,85.9l3.8,41.9"/>
	<path id="path4079_1_" class="st5" d="M121.7,79.5l3.6,39.8"/>
</g>
</svg>
