<?xml version="1.0" encoding="utf-8"?>
<!-- Generator: Adobe Illustrator 21.0.0, SVG Export Plug-In . SVG Version: 6.00 Build 0)  -->
<svg version="1.1"
	 id="Calque_1" xmlns:cc="http://web.resource.org/cc/" xmlns:dc="http://purl.org/dc/elements/1.1/" xmlns:rdf="http://www.w3.org/1999/02/22-rdf-syntax-ns#" xmlns:svg="http://www.w3.org/2000/svg"
	 xmlns="http://www.w3.org/2000/svg" xmlns:xlink="http://www.w3.org/1999/xlink" x="0px" y="0px" viewBox="0 0 170.1 170.1"
	 style="enable-background:new 0 0 170.1 170.1;" xml:space="preserve">
<style type="text/css">
	.st0{fill:#EBC275;}
	.st1{fill:#948547;}
	.st2{stroke:#000000;stroke-width:3.600000e-02;stroke-miterlimit:10;}
	.st3{fill:#CD3204;}
</style>
<g>
	<g id="Layer_1">
		<g>
			<path class="st0" d="M61.7,13.5c-1.6-1.1-3.6-1.7-5.9-1.9c-2.4-0.3-5.2-0.5-7.9,0.6c-2.8,1.1-6.7,3.7-8.4,6.2
				c-1.6,2.5-1.7,5.4-1.4,8.7c0.2,3.3,1.7,6.9,2.7,11c0.9,4.1,2.1,10,2.9,13.3c0.7,3.2,1.3,5.1,1.6,5.9c-2.9,2.5-5.4,5.4-7.6,8.8
				c-2.3,3.4-3.5,6.9-5.6,11.5c-2.1,4.6-5.3,11.2-7,15.7c-1.7,4.5-2.7,7.2-3,11.2c-0.3,3.9,0.1,9.4,1.1,12c1,2.6,2.3,3.1,5.2,3.7
				c2.8,0.6,8.5,0.1,11.7,0c3.1-0.2,5.6-0.6,6.9-0.8c1.2-0.2,1.3-0.4,0.3-0.5c-1.8,1.8-3.1,4.1-3.8,7.3c-0.8,3.2-1,7.5-0.7,11.3
				c0.3,3.8,0.8,7.9,2.9,11.1c2.1,3.1,5.5,5.6,9.4,7.5c3.8,1.8,9.2,3,13.2,3.2c3.9,0.1,7.1-0.8,10.1-2.1c3-1.3,5.8-3.2,7.7-5.5
				c1.8-2.2,2.5-5.2,3.1-7.8c0.5-2.7,0.5-5.5,0.3-7.9c-0.3-2.4-0.7-4.6-1.6-6.6l7.9,0.2c-0.4,2.1-0.6,4.7-0.4,8.1
				c0.2,3.4,0.1,8.7,1.4,12.1c1.3,3.4,3,6.4,6.2,8.3c3.2,1.9,8.6,3.1,12.8,3c4.2-0.3,8.9-2.5,12.1-4.2c3-1.8,4.7-3.1,6.3-5.9
				c1.6-2.8,2.8-6.9,3.3-10.6c0.5-3.8,0-8.6-0.5-11.9c-0.5-3.4-0.8-5.6-2.4-8c-1.6-2.4-3.9-4.5-7-6.3l5.7-3.9c2.8,1,5.6,1.3,8.7,1.2
				c3.1-0.2,7.5-0.8,9.7-2c2.1-1.3,2.8-2.8,3-5.5c0.1-2.7-0.6-6.3-2-10.6c-1.4-4.4-3.9-11-6.4-15c-2.5-4-5-6.1-8.6-9
				c-3.7-2.9-8-5.5-13.3-8c1.1-3.1,1.9-6.7,2.4-11c0.5-4.3,0.6-9,0.5-14.4c1.6-0.9,2.8-2.3,3.9-4.3c1-2,2.2-5,2.3-7.6
				c0-2.7-0.7-5.9-2.2-8c-1.6-2.2-4.4-4-6.9-4.9c-2.5-0.8-5-0.8-8-0.2c-3,0.6-6.3,1.6-9.9,3.4c-2.4-1.7-5.3-2.9-9.1-3.8
				c-3.8-1-9.5-1.5-13.2-1.6c-3.6-0.1-5.6-0.1-8.6,1c-3,1.1-6,2.9-9.3,5.5L61.7,13.5L61.7,13.5z"/>
			<path class="st1" d="M53.3,130.4c-1.1,2.4-1.7,5.1-0.9,7.9c0.8,2.7,2.6,6.6,5.9,8.5c3.4,1.9,9.8,3.4,13.8,2.5
				c3.9-1,8.8-3.7,9.6-7.9c0.8-4.2-1-13.9-4.8-16.9c-3.9-3-14.1-1.9-18.1-0.9C55,124.6,54.4,127.9,53.3,130.4L53.3,130.4z"/>
			<path class="st1" d="M107.2,129.5c-1.3,2.8-0.5,8.2,0.3,11.3c0.7,3.1,1.3,6.3,3.9,7.1c2.7,0.7,9-0.6,11.9-2.8
				c2.7-2.3,4.2-7.4,4.5-10.4c0.2-3.1-1-5.9-3.1-7.6c-2.2-1.7-6.7-3-9.6-2.5C112.2,124.9,108.5,126.8,107.2,129.5L107.2,129.5z"/>
			<path class="st1" d="M114.3,21.4c4,0,6.8,0.6,8.5,2c1.7,1.4,1.8,4.1,1.4,6.2c-0.4,2-1.6,4-3.7,5.9c-5.2-2.9-8.3-5.5-9.3-7.9
				C110.1,25.3,111.1,23.2,114.3,21.4L114.3,21.4z"/>
			<path class="st1" d="M62.3,23.4c-5-1-8.5-1.2-10.7-0.9c-2.2,0.3-2.1,1.3-2.5,3.1c-0.4,1.8-0.4,4.3,0,7.6c3.5,0.9,6.2,0.5,8.5-1.1
				C59.7,30.5,61.3,27.6,62.3,23.4L62.3,23.4z"/>
			<path class="st2" d="M71.6,20.6c-2-1.9-4.4-3.5-7.3-4.9c-2.9-1.4-6.4-3.2-9.8-3.2c-3.4,0-8,1.3-10.6,3.3c-2.7,2-5.2,4.6-5.3,8.6
				c0,4,1.6,8.9,5,15.1c-2.4-1.7-4.3-4-5.4-6.9c-1.2-3-2.1-7.4-1.6-10.4c0.5-3.1,2.5-5.9,4.8-7.9c2.2-2,5.6-3.6,8.3-4.1
				c2.7-0.6,4.1-1.1,7.8,0.7C61.3,12.6,65.8,15.8,71.6,20.6L71.6,20.6z"/>
			<path class="st2" d="M65.9,15c3.9-2.2,7.4-3.7,10.6-4.6c3.2-0.9,5-0.9,8.3-0.8c3.4,0.1,8.3,0.9,11.5,1.5c3.1,0.5,5.5,0.9,7.3,1.5
				c-3.1-1.8-6.5-3.1-10.6-3.8C88.9,7.9,83.2,7.6,79.3,8c-4,0.4-7.5,2.1-9.8,3.3C67.2,12.5,66.1,13.7,65.9,15L65.9,15z"/>
			<path class="st2" d="M100.8,21c0.9-2.4,2.4-4.6,4.6-6.5c2.2-1.9,5.3-4.1,8.6-4.8c3.2-0.7,7.6-0.5,10.7,0.5c3.1,1,6,3,7.8,5.7
				c1.7,2.7,3.4,6.9,2.5,10.2c-0.9,3.2-3.5,6.2-7.8,9.1c2.6-1.7,4.2-3.8,4.9-6.5c0.7-2.7,0.8-6.6-0.5-9.4c-1.4-2.9-4.2-6.4-7.4-7.5
				c-3.2-1.1-7.6-0.6-11.5,0.9C108.8,14.3,104.9,17,100.8,21L100.8,21z"/>
			<path class="st2" d="M125.7,37.6c0.7,2.4,0.8,5.2,0.5,8.5c-0.3,3.3-1.3,7.8-2.4,11.1c-1.1,3.3-2.3,5.6-4,8.5
				c-1.7,2.8-3.8,6.2-6,8.5c-2.2,2.2-4.4,3.8-6.9,4.9c2.8-0.5,5.3-1.5,7.7-3.2c2.4-1.7,4.5-3.6,6.5-6.9c1.9-3.3,4.1-8.3,5.2-12.6
				c1-4.3,1.3-9.7,1.2-12.8C127.4,40.4,126.8,38.4,125.7,37.6L125.7,37.6z"/>
			<path class="st2" d="M43.4,41.1c-0.6,4-0.7,7.5-0.4,10.7c0.3,3.2,0.6,5.3,2.1,8.5c1.5,3.1,3.5,7.3,6.7,10.2
				c3.3,2.8,7.5,5.1,12.8,6.8c-4.5-2.4-8.2-5.4-11.2-9.3c-3.1-3.8-5.3-9-7-13.5C44.8,50,43.8,45.6,43.4,41.1L43.4,41.1z"/>
			<path class="st2" d="M64.6,60.3c-3.4-2.5-4.7-5.2-4.3-8.1c0.5-3,4.1-8.1,7.1-9.4c2.9-1.3,8.5-0.9,10.5,1.7
				c1.9,2.6,2.2,7.2,0.9,13.9c0.1-6.7-0.9-10.8-3.2-12.4c-2.3-1.6-8.9,0.4-10.7,2.8C63,51.1,62.9,54.9,64.6,60.3L64.6,60.3z"/>
			<path class="st2" d="M72.3,51.3c1.9,0,3.4,2.2,3.4,4.9s-1.5,4.9-3.4,4.9s-3.4-2.2-3.4-4.9C68.8,53.5,70.4,51.3,72.3,51.3"/>
			<path class="st2" d="M108,60c3.1-2.4,4.4-4.8,4-7.6c-0.5-2.8-3.9-7.7-6.6-8.9c-2.8-1.2-8.1-0.9-9.8,1.6
				c-1.8,2.5-2.1,6.7-0.8,13.1c-0.2-6.3,0.8-10.1,3-11.7c2.2-1.5,8.3,0.3,10.1,2.6C109.5,51.4,109.5,55,108,60L108,60z"/>
			<path class="st2" d="M100.7,51.6c1.8,0,3.2,2.1,3.2,4.6c0,2.5-1.4,4.6-3.2,4.6c-1.8,0-3.2-2.1-3.2-4.6
				C97.5,53.7,98.9,51.6,100.7,51.6"/>
			<path class="st2" d="M42,63.7c-5.8,6.1-10.4,12-13.9,17.9c-3.5,5.9-5.7,11.5-6.9,17.1c-1.2,5.5-1.2,11.7-0.4,15.6
				c0.7,3.8,1.1,6.4,4.8,7.1c3.7,0.7,9.3-0.2,17.1-2.8c-6.8,1.6-11.7,1.7-14.9,0.1c-3.2-1.6-4.2-4.5-4.2-9.4c0-5,1.1-12.2,4.2-19.8
				C30.8,81.8,35.5,73.4,42,63.7L42,63.7z"/>
			<path class="st2" d="M56.4,81.8C55.1,83,54,85.5,53,89.5c-1,4-1.9,9.3-2.7,16.3c1.8-5.5,3.2-10.1,4.2-14.2
				C55.5,87.6,56.2,84.4,56.4,81.8L56.4,81.8z"/>
			<path class="st2" d="M113.4,84.2c0.4,3,1.5,6.3,3.3,9.9c1.8,3.6,4.2,7.4,7.4,11.6c-1.7-4.9-3.4-9.1-5.2-12.7
				C117.2,89.4,115.3,86.5,113.4,84.2L113.4,84.2z"/>
			<path class="st2" d="M128.5,65.4c6.1,2.7,10.8,6.4,14.5,11.2c3.7,4.9,6.1,12.4,7.4,17.9c1.3,5.4,4,11.9,0.4,14.3
				c-3.7,2.4-10.8,2.4-21.8,0c5.7,2.9,10.4,4.4,14.5,4.8c4.1,0.3,7.8-1,9.8-3c2-2.1,3.1-3.8,2-9.5c-1.2-5.8-4.5-18.8-9-24.7
				C141.8,70.3,135.9,66.8,128.5,65.4L128.5,65.4z"/>
			<path class="st2" d="M77.9,157.2c-5,2.6-10,3.5-15.3,2.7c-5.3-0.9-12.8-3.5-16.4-7.4c-3.6-3.9-4.8-10.5-5.2-15.6
				c-0.3-5.2,0.7-10.8,3-14.9c2.3-4.1,5.9-7.9,10.5-9.4c4.6-1.6,9.9-1.5,16.5,0.1c-6.2,0.1-11.2,0.8-15.3,2.4
				c-4.1,1.5-6.9,3.5-9,6.9c-2.1,3.4-3.3,8.6-3.2,13.2c0.1,4.5,1.3,10.2,4,13.9c2.6,3.6,6.7,6.4,11.8,7.8
				C64.4,158.2,70.5,158.2,77.9,157.2L77.9,157.2z"/>
			<path class="st2" d="M106.8,160.2c3.7,0.7,7.3,0.5,11.1-0.5c3.8-1.1,8.3-3.2,11.2-5.7c2.9-2.5,5-5.4,6.2-9.4
				c1.1-4.1,1.4-10.6,0.8-14.7c-0.6-4-2.2-6.8-4.1-9.4c-1.9-2.6-3.5-4.9-7.4-5.9c-3.9-1-9.2-1-16-0.1c4-1.7,7.8-2.4,11.8-2.4
				c3.9,0,8.6,0.7,11.5,2.8c2.9,2.1,4.7,5.7,5.8,9.7c1.1,3.9,0.9,9.4,0.8,13.4c-0.2,3.8-0.3,6.6-1.6,9.8c-1.3,3.2-3.4,6.7-6.1,9
				c-2.7,2.3-5.9,4.1-9.9,4.8C116.9,162,112.2,161.6,106.8,160.2L106.8,160.2z"/>
			<path class="st2" d="M99.5,152c-2.8-2.9-4.6-6.4-5.3-10.8c-0.7-4.4-0.1-11.4,1.1-15.5c1.2-4.1,3.1-7,5.9-8.9
				c-2.5,4.6-4.1,8.8-4.9,12.6c-0.8,3.8-0.6,6.2,0,10C96.9,143.2,97.9,147.4,99.5,152L99.5,152z"/>
			<path class="st2" d="M82.8,123.2c2.3,2.9,3.8,6.7,4.5,11.5c0.7,4.8,0.7,10.4-0.1,17.1c2-4.5,3-8.7,3.2-12.7c0.1-4-1-8.3-2.2-11
				C86.8,125.4,85.1,123.8,82.8,123.2L82.8,123.2z"/>
			<path class="st2" d="M62.9,122.3c-3.1-0.2-5.4,0.8-7.1,3.2c-1.7,2.4-3.1,7.2-2.9,11c0.3,3.8,2,8.9,4.5,11.4
				c2.4,2.5,6.6,3.9,9.9,3.4c3.3-0.5,6.4-2.6,9.5-6.3c-4.3,2.7-7.8,4-10.7,4.1c-3,0-5-2.3-6.6-4c-1.7-1.8-2.5-3.8-3-6.3
				c-0.6-2.5-1.5-5.9-0.4-8.6C57.1,127.3,59.3,124.7,62.9,122.3L62.9,122.3z"/>
			<path class="st2" d="M116.6,123.9c3.6-0.4,6.4,0.4,8.7,2.4c2.3,2,5.1,6,4.9,9.5c-0.2,3.5-3.5,8.7-6.2,11.1
				c-2.8,2.3-7.2,3.7-10.2,3c-3-0.7-5.4-3.1-7.5-7.3c2.3,2.7,4.6,4.2,7.1,4.8c2.5,0.5,5.2,0,7.7-1.7c2.4-1.7,5.8-5.6,6.6-8.3
				c0.7-2.7,0-5.4-1.9-7.7C123.9,127.4,120.9,125.5,116.6,123.9L116.6,123.9z"/>
			<path class="st2" d="M49.2,34.5c-1.6-3-2.2-5.6-1.9-7.7c0.3-2.2,0-4.8,3.6-5.2c3.6-0.3,9.5,0.7,18,3.1c-7-1.4-12-1.9-15.3-1.6
				c-3.2,0.3-3.3,1.4-4,3.4C48.8,28.4,48.7,31,49.2,34.5L49.2,34.5z"/>
			<path class="st2" d="M51.8,33.5l8.2-1.4c-1.1,1.2-2.4,2-3.7,2.2C54.9,34.5,53.5,34.2,51.8,33.5L51.8,33.5z"/>
			<path class="st2" d="M121.6,35.2c2.1-2.7,3.2-5.1,3.3-7.3c0.1-2.2,0.8-4.8-2.7-5.7c-3.5-1-9.5-1-18.2-0.1
				c7.2-0.1,12.2,0.3,15.3,1.1c3.1,0.8,3,2,3.4,4C123.1,29.2,122.7,31.8,121.6,35.2L121.6,35.2z"/>
			<path class="st2" d="M119.2,33.8l-7.8-2.9c0.9,1.4,1.9,2.3,3.3,2.8C115.9,34.2,117.4,34.2,119.2,33.8L119.2,33.8z"/>
			<path class="st1" d="M72.8,68.3c-3.2,1.5-7.2,3.6-6.8,5.9c0.5,2.4,4.8,6,9.6,8.2c4.8,2.2,14,5,18.6,4.5c4.5-0.6,7.5-5,8.5-7.9
				c0.9-2.9,0.1-6.7-2.8-9c-3-2.3-10.1-4.5-14.7-4.8C80.6,64.9,76,66.8,72.8,68.3L72.8,68.3z"/>
			<path class="st2" d="M87.1,84.7c0.7-1.5,0.6-3.2-0.3-5c-0.9-1.9-4.9-4.9-4.8-6.2c0.2-1.3,3.3-1,5.7-1.3c2.4-0.3,5.1-0.5,8.5-0.5
				c-5.7,0.7-9.1,1.5-10.3,2.7c-1.2,1.1,2.8,2.2,3,4C89.1,79.9,88.5,82,87.1,84.7L87.1,84.7z"/>
			<path class="st2" d="M103.9,75.1c-0.4,2.7-1.6,4.9-3.4,6.8c-1.9,1.8-4.1,3.4-7.7,4.1c-3.7,0.7-8.2,0.7-14,0
				c3.2,1.3,6.3,2,9.7,2.1c3.3,0.1,7.6-0.4,10.1-1.5c2.4-1.1,3.4-3.1,4.4-5C103.7,79.7,104,77.6,103.9,75.1L103.9,75.1z"/>
			<path class="st2" d="M68,70c0.8-0.7,2.6-1.5,5.3-2.5c2.7-1.1,7.4-3.3,10.8-3.6c3.4-0.3,5.9,0.8,9.5,2c3.6,1.2,7.4,2.9,11.8,5.3
				c-6.9-3.3-12.6-5.1-17.6-5.6c-4.9-0.4-8.5,2.4-11.8,3.2C72.8,69.5,70.1,69.9,68,70L68,70z"/>
			<path d="M87.3,128.5l7.8,0.4l-0.3,1.2l-6.5-0.1L87.3,128.5L87.3,128.5z"/>
			<path class="st3" d="M91.7,116.4c-4-2.2-7.2-4.5-9.9-6.7c-2.7-2.3-5-4.6-6.1-6.9c-1.1-2.3-1.3-5.3-0.6-6.9
				c0.6-1.6,2.8-2.6,4.4-2.8c1.6-0.3,3.6,0.5,5,1.1c1.4,0.5,2.4,1.2,3.1,2c2-2.2,4-3.5,6.1-3.9c2.1-0.5,5.3-0.2,6.4,1.4
				c1.1,1.6,1.9,4.5,0.5,8.3C99.2,105.8,96.3,110.6,91.7,116.4L91.7,116.4z"/>
			<path d="M86.2,95.1c-0.9-1.4-2.1-2.3-3.6-2.7c-1.5-0.5-3.7-0.6-5.3,0.2c-1.6,0.8-4.2,2.4-4.4,4.7c-0.3,2.3,0.1,6,3,9.1
				c2.9,3,7.5,6,14.1,8.9c-2.8-2.2-5.3-4.4-7.7-6.8c-2.4-2.3-5.3-4.9-6.3-7.1c-1-2.2-0.7-4.5,0.3-5.8c1-1.3,4-1.6,5.6-1.7
				C83.6,93.9,85,94.2,86.2,95.1L86.2,95.1z"/>
			<path d="M90,94.6c0.4-1.6,1.4-2.5,3-3.1c1.6-0.6,4.7-1.3,6.4-0.3c1.7,1,4.9,2.5,3.9,6.4c-1.1,3.9-4.4,9.4-10.2,16.8
				c3-5.1,5-9.1,6.1-12.2c1.1-3.2,0.7-5.2,0.3-6.6c-0.4-1.4-1.3-1.8-2.8-1.9C95.1,93.5,92.9,93.8,90,94.6L90,94.6z"/>
		</g>
	</g>
</g>
</svg>
